<svg xmlns="http://www.w3.org/2000/svg" xmlns:xlink="http://www.w3.org/1999/xlink" width="2160" zoomAndPan="magnify" viewBox="0 0 1620 2879.999992" height="3840" preserveAspectRatio="xMidYMid meet" version="1.0"><defs><clipPath id="e1de0880a0"><path d="M 1393 2367 L 1404.972656 2367 L 1404.972656 2387 L 1393 2387 Z M 1393 2367 " clip-rule="nonzero"/></clipPath></defs><path fill="#010101" d="M 499.988281 2371.480469 C 489.074219 2399.035156 474.378906 2426.375 467.355469 2455.332031 C 463.140625 2472.621094 465.949219 2499.851562 449.203125 2511.195312 C 436.558594 2519.625 417.21875 2514.4375 403.710938 2510.980469 C 396.253906 2509.035156 387.394531 2506.980469 380.804688 2502.984375 C 373.5625 2498.660156 376.265625 2492.503906 373.5625 2485.480469 C 371.511719 2479.96875 367.945312 2475.105469 365.890625 2469.703125 C 363.082031 2462.355469 361.355469 2454.574219 358.867188 2447.226562 C 353.574219 2431.992188 347.632812 2416.972656 342.875 2401.519531 C 340.285156 2393.199219 337.90625 2384.773438 335.746094 2376.34375 C 335.203125 2374.292969 334.664062 2372.128906 334.125 2369.96875 C 333.800781 2368.347656 333.476562 2366.726562 333.152344 2365.214844 C 336.824219 2364.027344 340.5 2362.835938 344.28125 2361.542969 C 347.199219 2362.730469 349.46875 2369.429688 350.765625 2372.238281 C 358.652344 2389.203125 366.433594 2406.277344 374.320312 2423.238281 C 375.402344 2425.617188 379.292969 2424.429688 379.183594 2421.945312 C 378.535156 2400.222656 377.886719 2378.398438 377.128906 2356.679688 C 376.480469 2335.714844 374.96875 2314.539062 375.726562 2293.683594 C 375.726562 2293.144531 375.507812 2288.28125 376.050781 2287.523438 C 381.992188 2278.449219 382.101562 2286.875 382.53125 2289.683594 C 383.503906 2295.519531 384.261719 2301.355469 385.125 2307.191406 C 386.53125 2318.210938 387.71875 2329.339844 388.582031 2340.46875 C 389.339844 2350.519531 389.878906 2360.460938 390.203125 2370.507812 C 390.3125 2375.480469 390.421875 2380.558594 390.527344 2385.527344 C 390.527344 2389.417969 389.773438 2394.066406 391.285156 2397.847656 C 393.988281 2404.332031 403.171875 2405.734375 407.710938 2400.441406 C 410.949219 2396.550781 410.195312 2390.175781 410.410156 2385.527344 C 410.949219 2374.074219 411.492188 2362.621094 412.140625 2351.277344 C 413.21875 2330.097656 414.191406 2308.917969 415.273438 2287.847656 C 415.8125 2277.691406 416.246094 2267.535156 416.785156 2257.375 C 417.003906 2252.515625 416.460938 2244.734375 418.296875 2240.195312 C 420.136719 2235.65625 426.292969 2233.496094 429.859375 2237.601562 C 432.777344 2240.84375 431.804688 2248.625 431.914062 2252.40625 C 432.023438 2256.945312 432.128906 2261.484375 432.238281 2266.019531 C 432.453125 2277.367188 432.347656 2288.820312 432.128906 2300.167969 C 431.589844 2321.777344 430.292969 2343.386719 428.238281 2364.890625 C 427.375 2374.398438 425.96875 2383.910156 426.292969 2393.417969 C 426.511719 2399.144531 426.292969 2407.464844 431.050781 2411.679688 C 437.101562 2417.082031 446.394531 2413.839844 448.554688 2406.277344 C 450.824219 2398.386719 450.714844 2389.09375 451.796875 2380.882812 C 453.09375 2370.183594 454.390625 2359.488281 455.6875 2348.898438 C 456.875 2338.742188 458.171875 2328.691406 459.359375 2318.535156 C 460.117188 2312.269531 459.574219 2289.792969 471.03125 2293.46875 C 480.644531 2296.492188 473.621094 2318.210938 472.433594 2324.695312 C 469.625 2339.28125 466.597656 2353.761719 463.789062 2368.242188 C 462.277344 2376.238281 460.871094 2384.339844 459.683594 2392.335938 C 459.035156 2396.765625 456.332031 2405.195312 458.710938 2409.191406 C 463.464844 2416.972656 468.867188 2408.328125 470.707031 2404.007812 C 475.136719 2393.632812 479.671875 2383.367188 484.105469 2372.996094 C 485.617188 2369.429688 487.128906 2365.863281 488.640625 2362.40625 C 489.074219 2361.433594 489.507812 2360.351562 489.9375 2359.378906 C 492.75 2353.976562 491.992188 2353.976562 497.933594 2357.867188 C 502.90625 2358.949219 504.308594 2361.757812 502.257812 2366.078125 C 501.394531 2367.808594 500.746094 2369.644531 499.988281 2371.480469 C 498.800781 2374.617188 503.878906 2376.019531 505.066406 2372.886719 C 507.550781 2366.1875 509.605469 2358.191406 504.742188 2351.925781 C 501.71875 2348.035156 496.53125 2346.628906 491.992188 2348.683594 C 485.292969 2351.816406 482.699219 2361.757812 479.996094 2368.132812 C 475.785156 2377.964844 471.460938 2387.90625 467.246094 2397.738281 C 466.921875 2398.605469 464.546875 2405.734375 463.789062 2405.84375 C 462.601562 2406.058594 465.195312 2388.121094 465.519531 2385.851562 C 468.21875 2369.753906 471.570312 2353.652344 474.8125 2337.660156 C 477.082031 2326.207031 480.105469 2314.320312 480.644531 2302.652344 C 481.078125 2294.4375 476.109375 2286.660156 466.921875 2287.957031 C 453.308594 2289.792969 454.820312 2310.105469 453.523438 2320.15625 C 450.824219 2342.632812 448.015625 2365.105469 445.3125 2387.582031 C 444.664062 2392.445312 445.097656 2399.792969 443.257812 2404.4375 C 439.800781 2412.976562 433.425781 2407.894531 431.914062 2401.738281 C 429.210938 2390.714844 431.914062 2377.640625 432.996094 2366.511719 C 435.261719 2343.28125 436.667969 2320.046875 437.101562 2296.707031 C 437.316406 2285.902344 437.316406 2275.097656 437.101562 2264.292969 C 436.992188 2256.296875 438.613281 2245.273438 435.585938 2237.601562 C 432.5625 2229.929688 421.972656 2227.769531 416.03125 2233.496094 C 411.492188 2237.820312 412.03125 2245.273438 411.597656 2250.894531 C 410.84375 2262.5625 410.410156 2274.339844 409.761719 2286.011719 C 408.574219 2309.457031 407.492188 2332.90625 406.304688 2356.355469 C 405.765625 2366.621094 405.332031 2376.886719 404.792969 2387.257812 C 404.683594 2390.5 405.007812 2401.195312 398.417969 2398.28125 C 393.339844 2396.011719 395.5 2381.855469 395.390625 2377.207031 C 394.851562 2352.574219 392.90625 2327.9375 389.664062 2303.515625 C 388.800781 2297.03125 389.449219 2283.417969 383.9375 2278.878906 C 380.804688 2276.179688 375.726562 2276.503906 372.917969 2279.636719 C 368.054688 2285.039062 370.214844 2298.222656 370.214844 2304.703125 C 370.324219 2317.453125 370.972656 2330.3125 371.296875 2343.0625 C 372.050781 2369.429688 372.917969 2395.792969 373.671875 2422.160156 C 375.292969 2421.726562 376.914062 2421.296875 378.535156 2420.863281 C 370 2402.386719 362.652344 2382.394531 352.492188 2364.78125 C 347.957031 2356.785156 336.71875 2347.710938 329.695312 2358.730469 C 326.453125 2363.808594 328.289062 2369.429688 329.695312 2374.832031 C 332.394531 2385.421875 335.3125 2395.902344 338.664062 2406.277344 C 344.605469 2424.96875 352.277344 2443.121094 357.894531 2462.03125 C 360.164062 2469.703125 362.757812 2475.96875 366.433594 2483.101562 C 369.132812 2488.398438 369.457031 2491.855469 369.675781 2497.472656 C 369.78125 2499.742188 369.566406 2501.363281 370.972656 2503.417969 C 374.429688 2508.496094 384.695312 2510.871094 390.3125 2512.816406 C 400.144531 2516.273438 410.304688 2518.652344 420.675781 2520.058594 C 432.886719 2521.675781 446.394531 2522.109375 455.902344 2512.925781 C 464.113281 2505.039062 466.707031 2493.152344 468.4375 2482.347656 C 471.03125 2466.03125 473.730469 2451.226562 479.566406 2435.667969 C 487.34375 2414.597656 496.855469 2394.28125 505.066406 2373.425781 C 506.253906 2369.753906 501.285156 2368.347656 499.988281 2371.480469 Z M 499.988281 2371.480469 " fill-opacity="1" fill-rule="nonzero"/><path fill="#010101" d="M 369.132812 2497.582031 C 357.574219 2521.136719 348.496094 2545.988281 343.199219 2571.597656 C 341.148438 2581.433594 344.820312 2582.402344 353.898438 2584.890625 C 366.972656 2588.5625 380.046875 2592.777344 393.339844 2595.585938 C 404.574219 2597.964844 415.382812 2597.855469 426.402344 2594.832031 C 434.613281 2592.667969 447.042969 2590.292969 452.011719 2582.511719 C 454.605469 2578.515625 455.363281 2573.21875 456.332031 2568.679688 C 458.0625 2561.226562 459.359375 2553.769531 460.332031 2546.3125 C 462.0625 2533.132812 462.710938 2519.949219 462.386719 2506.65625 C 462.277344 2503.308594 457.089844 2503.308594 457.199219 2506.65625 C 457.738281 2528.160156 455.6875 2549.664062 450.5 2570.519531 C 448.769531 2577.648438 446.824219 2582.296875 439.261719 2585.105469 C 434.507812 2586.835938 429.753906 2588.457031 424.890625 2589.859375 C 413.542969 2592.886719 402.847656 2592.5625 391.5 2589.859375 C 381.453125 2587.484375 371.511719 2584.457031 361.570312 2581.648438 C 359.410156 2581 357.25 2580.460938 355.085938 2579.8125 C 350.980469 2578.621094 349.46875 2579.269531 348.386719 2575.488281 C 347.089844 2571.167969 350.226562 2563.601562 351.414062 2559.28125 C 356.816406 2538.859375 364.273438 2519.085938 373.5625 2500.175781 C 375.078125 2497.257812 370.648438 2494.554688 369.132812 2497.582031 Z M 369.132812 2497.582031 " fill-opacity="1" fill-rule="nonzero"/><path fill="#010101" d="M 419.269531 2565.222656 C 418.730469 2572.894531 432.5625 2575.488281 437.75 2572.570312 C 443.257812 2569.546875 445.3125 2559.929688 441.636719 2554.851562 C 438.722656 2550.851562 433.101562 2550.421875 428.78125 2552.039062 C 423.054688 2554.203125 419.8125 2559.386719 419.269531 2565.222656 C 418.945312 2568.574219 424.132812 2568.574219 424.457031 2565.222656 C 424.890625 2560.359375 430.617188 2553.984375 436.019531 2556.796875 C 438.503906 2558.09375 438.398438 2561.226562 437.75 2563.601562 C 436.882812 2566.953125 435.15625 2568.789062 431.589844 2568.464844 C 430.078125 2568.355469 424.242188 2567.277344 424.457031 2565.222656 C 424.675781 2561.875 419.488281 2561.875 419.269531 2565.222656 Z M 419.269531 2565.222656 " fill-opacity="1" fill-rule="nonzero"/><path fill="#010101" d="M 346.226562 2572.894531 C 338.015625 2572.789062 332.070312 2576.675781 327.53125 2583.375 C 320.617188 2593.535156 316.296875 2605.742188 311.433594 2616.875 C 299.222656 2644.535156 287.878906 2672.523438 277.289062 2700.832031 C 255.675781 2758.316406 236.441406 2816.773438 215.804688 2874.582031 C 214.722656 2877.71875 219.695312 2879.121094 220.882812 2875.988281 C 239.683594 2823.367188 257.296875 2770.203125 276.640625 2717.796875 C 286.582031 2691 296.847656 2664.308594 308.082031 2637.945312 C 313.808594 2624.546875 319.644531 2611.253906 325.804688 2598.179688 C 330.125 2589.105469 334.558594 2578.082031 346.335938 2578.191406 C 349.578125 2578.082031 349.578125 2572.894531 346.226562 2572.894531 Z M 346.226562 2572.894531 " fill-opacity="1" fill-rule="nonzero"/><path fill="#010101" d="M 451.363281 2579.703125 C 455.039062 2603.367188 454.066406 2628.757812 451.578125 2652.640625 C 448.984375 2678.140625 445.421875 2703.425781 441.097656 2728.710938 C 432.886719 2777.550781 422.511719 2825.957031 412.894531 2874.476562 C 412.246094 2877.71875 417.328125 2879.121094 417.976562 2875.878906 C 428.023438 2825.09375 438.9375 2774.523438 447.257812 2723.523438 C 454.929688 2676.410156 463.683594 2626.058594 456.332031 2578.40625 C 455.902344 2574.949219 450.929688 2576.351562 451.363281 2579.703125 Z M 451.363281 2579.703125 " fill-opacity="1" fill-rule="nonzero"/><path fill="#010101" d="M 777.148438 2410.058594 C 777.902344 2406.492188 778.875 2402.925781 780.28125 2399.578125 C 780.820312 2398.171875 781.363281 2396.875 782.226562 2395.578125 C 785.792969 2395.578125 789.25 2395.578125 792.816406 2395.578125 C 793.570312 2396.441406 793.355469 2401.738281 793.355469 2403.140625 C 793.570312 2413.40625 792.816406 2423.457031 791.195312 2433.613281 C 787.953125 2454.035156 782.65625 2474.132812 782.980469 2494.988281 C 782.980469 2496.285156 784.171875 2497.691406 785.574219 2497.582031 C 795.515625 2496.933594 799.945312 2487.964844 802.324219 2479.320312 C 806.753906 2463.113281 809.5625 2446.363281 813.128906 2429.941406 C 816.804688 2413.082031 820.476562 2396.226562 824.152344 2379.371094 C 827.5 2364.132812 830.308594 2348.464844 836.683594 2334.09375 C 839.496094 2327.71875 843.925781 2316.160156 852.894531 2318.425781 C 862.1875 2320.804688 859.699219 2333.339844 858.402344 2340.253906 C 855.378906 2356.570312 849.21875 2372.5625 844.464844 2388.339844 C 834.09375 2422.484375 823.828125 2456.628906 813.453125 2490.773438 C 813.019531 2492.070312 813.886719 2493.582031 815.289062 2494.015625 C 824.257812 2496.394531 830.417969 2489.261719 834.09375 2481.804688 C 840.25 2469.378906 844.679688 2455.546875 849.4375 2442.472656 C 860.242188 2413.300781 869.75 2383.800781 879.152344 2354.195312 C 883.582031 2340.363281 888.335938 2326.640625 895.25 2313.890625 C 896.761719 2311.1875 898.277344 2306.867188 900.652344 2304.703125 C 901.84375 2303.730469 909.621094 2301.464844 911.242188 2302.867188 C 911.890625 2303.40625 911.675781 2307.191406 911.675781 2307.839844 C 911.566406 2314.539062 909.082031 2321.886719 907.351562 2328.367188 C 900.113281 2355.707031 888.765625 2381.746094 877.855469 2407.679688 C 865.859375 2435.882812 854.296875 2464.410156 848.140625 2494.554688 C 847.707031 2496.824219 850.734375 2499.308594 852.460938 2497.148438 C 883.472656 2458.574219 897.953125 2410.707031 922.804688 2368.457031 C 929.394531 2357.21875 936.851562 2346.414062 945.386719 2336.582031 C 946.902344 2334.851562 949.601562 2330.746094 951.761719 2329.773438 C 958.136719 2326.855469 959.109375 2333.878906 959.21875 2338.09375 C 959.433594 2345.980469 957.8125 2353.976562 955.652344 2361.542969 C 947.007812 2390.933594 928.421875 2417.945312 913.726562 2444.527344 C 897.953125 2473.054688 877.960938 2501.902344 869.859375 2533.78125 C 869.316406 2535.941406 871.695312 2537.992188 873.75 2536.699219 C 890.496094 2526.109375 907.351562 2515.84375 924.640625 2506.011719 C 928.855469 2503.632812 933.179688 2500.5 937.609375 2498.664062 C 948.523438 2494.339844 951.222656 2501.148438 949.171875 2510.332031 C 947.007812 2519.734375 939.660156 2527.40625 932.53125 2533.5625 C 906.8125 2555.929688 876.125 2571.492188 854.40625 2598.394531 C 844.789062 2610.28125 835.929688 2624.113281 822.53125 2632.109375 C 806.429688 2641.617188 787.304688 2637.511719 773.90625 2625.410156 C 748.730469 2602.609375 754.457031 2561.980469 754.023438 2531.402344 C 753.699219 2489.371094 768.609375 2450.46875 777.148438 2410.058594 C 777.796875 2406.816406 772.824219 2405.410156 772.070312 2408.652344 C 767.421875 2430.480469 760.832031 2451.875 755.859375 2473.59375 C 751.105469 2494.125 748.945312 2514.003906 749.054688 2534.96875 C 749.160156 2568.25 744.945312 2611.472656 775.957031 2633.40625 C 789.25 2642.804688 806.214844 2645.617188 821.125 2638.699219 C 837.332031 2631.246094 847.492188 2615.46875 858.296875 2601.960938 C 871.804688 2585.214844 888.765625 2572.464844 906.164062 2560.035156 C 921.074219 2549.449219 938.796875 2538.75 949.0625 2523.191406 C 953.925781 2515.84375 957.164062 2506.226562 953.601562 2497.582031 C 950.898438 2491.097656 945.929688 2489.476562 939.554688 2491.746094 C 928.53125 2495.746094 918.050781 2503.632812 908 2509.574219 C 895.683594 2516.816406 883.472656 2524.378906 871.371094 2532.050781 C 872.667969 2533.023438 873.964844 2533.996094 875.261719 2534.96875 C 879.691406 2517.679688 888.011719 2502.226562 896.546875 2486.667969 C 904.976562 2471.433594 913.402344 2456.195312 921.832031 2440.960938 C 937.285156 2413.082031 957.8125 2384.015625 963.433594 2352.140625 C 964.730469 2344.578125 967.863281 2328.800781 959.21875 2323.832031 C 950.464844 2318.75 942.144531 2332.148438 937.714844 2337.660156 C 920.425781 2358.949219 908.21875 2383.691406 896.546875 2408.542969 C 882.714844 2437.828125 869.425781 2467.757812 849.003906 2493.257812 C 850.40625 2494.125 851.921875 2494.988281 853.324219 2495.851562 C 865.320312 2436.746094 898.707031 2384.988281 913.402344 2326.746094 C 915.457031 2318.535156 920.210938 2305.570312 914.917969 2297.464844 C 910.703125 2291.199219 903.140625 2292.925781 898.816406 2298.113281 C 889.847656 2308.917969 884.445312 2323.722656 879.691406 2336.796875 C 874.289062 2351.601562 869.964844 2366.726562 865.210938 2381.746094 C 859.269531 2400.007812 853 2418.269531 846.410156 2436.316406 C 843.277344 2444.851562 840.035156 2453.277344 836.792969 2461.707031 C 833.984375 2468.839844 828.472656 2491.960938 816.910156 2488.9375 C 817.558594 2490.019531 818.101562 2491.097656 818.75 2492.179688 C 827.609375 2463.003906 836.359375 2433.828125 845.222656 2404.65625 C 849.542969 2390.285156 853.867188 2376.019531 858.1875 2361.648438 C 861.644531 2350.304688 866.507812 2337.335938 864.671875 2325.234375 C 863.699219 2318.96875 859.269531 2313.996094 852.785156 2313.132812 C 845.328125 2312.050781 840.46875 2316.804688 836.902344 2322.75 C 823.503906 2345.007812 820.367188 2373.210938 814.964844 2398.171875 C 811.402344 2414.488281 807.835938 2430.804688 804.269531 2447.121094 C 802.433594 2455.546875 800.59375 2463.976562 798.757812 2472.40625 C 797.136719 2479.535156 795.191406 2491.746094 785.792969 2492.394531 C 786.65625 2493.257812 787.519531 2494.125 788.386719 2494.988281 C 787.953125 2463.652344 799.621094 2433.613281 798.648438 2402.167969 C 798.433594 2394.605469 796.707031 2384.558594 786.65625 2386.394531 C 777.039062 2388.121094 773.796875 2400.546875 772.175781 2408.652344 C 771.527344 2411.894531 776.5 2413.300781 777.148438 2410.058594 Z M 777.148438 2410.058594 " fill-opacity="1" fill-rule="nonzero"/><path fill="#010101" d="M 749.054688 2576.246094 C 735.871094 2596.992188 722.6875 2617.738281 709.503906 2638.375 C 708.855469 2639.457031 709.179688 2640.644531 709.9375 2641.511719 C 736.410156 2674.035156 777.578125 2697.050781 820.367188 2693.808594 C 828.796875 2693.160156 837.980469 2692.078125 844.355469 2686.027344 C 850.191406 2680.519531 852.246094 2672.523438 853.109375 2664.851562 C 854.296875 2654.585938 854.191406 2643.671875 853.21875 2633.40625 C 852.570312 2627.03125 851.273438 2620.980469 846.84375 2616.007812 C 844.574219 2613.523438 840.898438 2617.199219 843.167969 2619.683594 C 847.597656 2624.546875 848.03125 2631.675781 848.246094 2637.945312 C 848.570312 2646.371094 848.789062 2655.125 847.921875 2663.554688 C 846.84375 2674.464844 842.84375 2683.652344 831.5 2686.785156 C 822.855469 2689.269531 812.914062 2689.160156 804.054688 2688.40625 C 768.179688 2685.597656 735.761719 2665.175781 713.503906 2637.726562 C 713.609375 2638.808594 713.828125 2639.890625 713.933594 2640.863281 C 727.117188 2620.117188 740.300781 2599.367188 753.484375 2578.730469 C 755.429688 2576.027344 750.890625 2573.4375 749.054688 2576.246094 Z M 749.054688 2576.246094 " fill-opacity="1" fill-rule="nonzero"/><path fill="#010101" d="M 711.019531 2636.648438 C 653.964844 2704.722656 622.523438 2789.003906 600.800781 2874.042969 C 599.9375 2877.285156 605.015625 2878.6875 605.882812 2875.449219 C 627.277344 2791.273438 658.179688 2707.640625 714.691406 2640.320312 C 716.851562 2637.835938 713.179688 2634.054688 711.019531 2636.648438 Z M 711.019531 2636.648438 " fill-opacity="1" fill-rule="nonzero"/><path fill="#010101" d="M 846.300781 2669.820312 C 849.867188 2739.730469 831.175781 2807.375 812.914062 2874.152344 C 812.050781 2877.394531 817.019531 2878.796875 817.992188 2875.554688 C 836.359375 2808.347656 855.164062 2740.164062 851.597656 2669.820312 C 851.378906 2666.46875 846.085938 2666.46875 846.300781 2669.820312 Z M 846.300781 2669.820312 " fill-opacity="1" fill-rule="nonzero"/><path fill="#010101" d="M 751.105469 2595.046875 C 746.027344 2604.769531 740.949219 2614.496094 735.761719 2624.328125 C 731.441406 2632.542969 725.929688 2640.863281 724.417969 2650.261719 C 723.875 2653.503906 728.953125 2655.015625 729.496094 2651.667969 C 731.007812 2641.835938 737.273438 2632.757812 741.8125 2624.113281 C 746.351562 2615.359375 751 2606.609375 755.535156 2597.855469 C 757.15625 2594.722656 752.726562 2592.019531 751.105469 2595.046875 Z M 751.105469 2595.046875 " fill-opacity="1" fill-rule="nonzero"/><path fill="#010101" d="M 764.503906 2618.820312 C 753.808594 2633.296875 746.136719 2649.398438 741.707031 2666.902344 C 740.839844 2670.144531 745.917969 2671.550781 746.785156 2668.308594 C 751.214844 2651.234375 758.671875 2635.675781 769.042969 2621.519531 C 770.988281 2618.710938 766.449219 2616.117188 764.503906 2618.820312 Z M 764.503906 2618.820312 " fill-opacity="1" fill-rule="nonzero"/><path fill="#010101" d="M 778.445312 2633.515625 C 769.042969 2647.34375 762.128906 2662.363281 757.914062 2678.464844 C 757.050781 2681.707031 762.128906 2683.109375 762.992188 2679.871094 C 767.207031 2664.09375 773.796875 2649.613281 782.980469 2636.105469 C 784.925781 2633.296875 780.390625 2630.703125 778.445312 2633.515625 Z M 778.445312 2633.515625 " fill-opacity="1" fill-rule="nonzero"/><path fill="#010101" d="M 790.4375 2640.105469 C 790.222656 2655.558594 784.710938 2669.710938 778.984375 2683.867188 C 777.6875 2687 782.765625 2688.296875 784.0625 2685.273438 C 790.003906 2670.683594 795.515625 2656.097656 795.734375 2640.105469 C 795.625 2636.753906 790.4375 2636.753906 790.4375 2640.105469 Z M 790.4375 2640.105469 " fill-opacity="1" fill-rule="nonzero"/><path fill="#010101" d="M 808.699219 2640.105469 C 806.644531 2649.289062 804.703125 2658.367188 802.648438 2667.550781 C 801.785156 2671.226562 801.027344 2675.007812 799.730469 2678.464844 C 798.324219 2682.460938 795.300781 2685.597656 794.113281 2689.484375 C 793.570312 2691.214844 794.976562 2692.621094 796.597656 2692.835938 C 796.8125 2692.835938 796.921875 2692.835938 797.136719 2692.945312 C 798.21875 2693.050781 799.40625 2692.078125 799.621094 2691 C 799.621094 2690.890625 799.621094 2690.78125 799.730469 2690.566406 C 800.378906 2687.324219 795.410156 2685.921875 794.652344 2689.160156 C 794.652344 2689.269531 794.652344 2689.378906 794.542969 2689.59375 C 795.410156 2688.945312 796.273438 2688.296875 797.03125 2687.648438 C 796.8125 2687.648438 796.707031 2687.648438 796.488281 2687.542969 C 797.351562 2688.621094 798.21875 2689.703125 798.972656 2690.890625 C 800.054688 2687.542969 802.757812 2684.515625 804.054688 2681.164062 C 805.566406 2677.167969 806.539062 2673.0625 807.402344 2668.847656 C 809.457031 2659.664062 811.402344 2650.585938 813.453125 2641.402344 C 814.425781 2638.160156 809.347656 2636.753906 808.699219 2640.105469 Z M 808.699219 2640.105469 " fill-opacity="1" fill-rule="nonzero"/><path fill="#010101" d="M 822.53125 2634.8125 C 822.421875 2643.777344 822.746094 2652.964844 822.207031 2661.933594 C 821.664062 2671.117188 818.75 2679.652344 815.613281 2688.296875 C 814.425781 2691.429688 819.503906 2692.835938 820.691406 2689.703125 C 823.609375 2681.488281 826.421875 2673.386719 827.285156 2664.632812 C 828.257812 2654.800781 827.71875 2644.644531 827.71875 2634.8125 C 827.714844 2631.460938 822.53125 2631.460938 822.53125 2634.8125 Z M 822.53125 2634.8125 " fill-opacity="1" fill-rule="nonzero"/><path fill="#010101" d="M 836.144531 2620.761719 C 838.847656 2642.375 841.222656 2664.527344 832.796875 2685.273438 C 831.5 2688.40625 836.578125 2689.703125 837.875 2686.675781 C 846.410156 2665.496094 844.140625 2642.914062 841.441406 2620.871094 C 840.898438 2617.523438 835.710938 2617.414062 836.144531 2620.761719 Z M 836.144531 2620.761719 " fill-opacity="1" fill-rule="nonzero"/><path fill="#010101" d="M 797.894531 2572.894531 C 811.292969 2571.273438 823.179688 2566.089844 833.445312 2557.226562 C 836.035156 2555.066406 832.253906 2551.285156 829.769531 2553.554688 C 820.691406 2561.441406 809.886719 2566.304688 798 2567.707031 C 794.542969 2568.140625 794.542969 2573.328125 797.894531 2572.894531 Z M 797.894531 2572.894531 " fill-opacity="1" fill-rule="nonzero"/><path fill="#010101" d="M 809.238281 2585.105469 C 815.289062 2583.484375 821.125 2581.109375 826.527344 2578.082031 C 829.445312 2576.460938 826.851562 2571.921875 823.933594 2573.542969 C 818.855469 2576.351562 813.453125 2578.515625 807.835938 2580.136719 C 804.59375 2580.890625 805.890625 2585.96875 809.238281 2585.105469 Z M 809.238281 2585.105469 " fill-opacity="1" fill-rule="nonzero"/><path fill="#010101" d="M 554.664062 2530.105469 C 562.660156 2511.195312 570.222656 2491.636719 573.464844 2471.214844 C 574.871094 2462.355469 575.410156 2453.277344 573.898438 2444.417969 C 571.84375 2432.425781 566.65625 2421.621094 565.46875 2409.410156 C 564.496094 2398.929688 565.144531 2388.445312 565.578125 2377.964844 C 565.902344 2371.914062 566.117188 2365.863281 566.117188 2359.8125 C 566.117188 2357.433594 565.359375 2352.679688 565.902344 2350.519531 C 568.925781 2339.929688 574.328125 2344.46875 577.570312 2348.140625 C 586.429688 2357.976562 586.863281 2374.183594 587.1875 2386.71875 C 587.402344 2398.386719 588.375 2409.300781 591.941406 2420.429688 C 592.480469 2421.945312 594.320312 2422.914062 595.832031 2421.945312 C 603.71875 2416.972656 605.558594 2408.542969 606.53125 2399.792969 C 608.257812 2384.664062 609.988281 2369.753906 613.230469 2354.949219 C 616.144531 2341.765625 619.820312 2328.691406 624.25 2315.835938 C 629.113281 2301.894531 634.082031 2285.6875 642.296875 2273.367188 C 645.320312 2268.832031 650.398438 2266.019531 655.585938 2269.695312 C 661.960938 2274.125 658.394531 2282.660156 656.882812 2288.710938 C 653.640625 2302.21875 649.101562 2315.402344 644.78125 2328.585938 C 636.246094 2354.839844 628.140625 2381.640625 630.839844 2409.515625 C 631.164062 2412.433594 634.949219 2413.082031 636.027344 2410.164062 C 645.214844 2382.828125 652.5625 2354.949219 661.960938 2327.613281 C 666.609375 2313.996094 671.792969 2300.492188 678.0625 2287.523438 C 681.085938 2281.148438 684.328125 2274.882812 687.894531 2268.722656 C 691.351562 2262.671875 694.160156 2253.8125 702.15625 2254.566406 C 713.070312 2255.539062 710.046875 2265.15625 707.992188 2272.828125 C 706.15625 2280.066406 703.996094 2287.199219 701.832031 2294.332031 C 697.296875 2308.488281 692.109375 2322.535156 686.8125 2336.363281 C 675.683594 2365.214844 663.691406 2393.742188 654.398438 2423.238281 C 653.53125 2425.941406 656.882812 2427.347656 658.71875 2425.832031 C 671.363281 2415.242188 678.386719 2396.875 684.976562 2382.289062 C 693.621094 2363.160156 701.183594 2343.496094 709.289062 2324.046875 C 711.882812 2317.777344 714.257812 2310.648438 718.148438 2305.027344 C 722.6875 2298.652344 733.492188 2298.4375 735.4375 2307.191406 C 737.058594 2313.996094 730.25 2323.9375 727.765625 2329.882812 C 713.070312 2364.890625 698.269531 2400.007812 683.464844 2435.019531 C 682.167969 2438.042969 686.273438 2440.636719 688.003906 2437.613281 C 698.375 2419.027344 709.398438 2400.980469 722.902344 2384.558594 C 726.46875 2380.234375 731.117188 2373.210938 737.597656 2376.992188 C 745.488281 2381.640625 739.4375 2391.472656 736.085938 2397.308594 C 729.601562 2408.4375 721.390625 2418.808594 714.042969 2429.292969 C 699.023438 2450.902344 683.894531 2472.621094 668.875 2494.230469 C 653.964844 2515.625 639.484375 2537.5625 622.523438 2557.335938 C 620.359375 2559.929688 624.035156 2563.601562 626.195312 2561.007812 C 646.832031 2536.914062 664.121094 2510.117188 682.167969 2484.074219 C 701.292969 2456.628906 722.148438 2429.617188 739.761719 2401.195312 C 744.082031 2394.171875 750.027344 2384.234375 744.515625 2376.34375 C 740.300781 2370.292969 731.980469 2368.996094 726.039062 2373.320312 C 718.042969 2379.152344 711.234375 2390.609375 705.617188 2398.605469 C 697.511719 2410.273438 690.378906 2422.59375 683.355469 2434.910156 C 684.867188 2435.773438 686.382812 2436.640625 687.894531 2437.503906 C 700.644531 2407.355469 713.289062 2377.316406 726.039062 2347.167969 C 729.171875 2339.714844 732.304688 2332.257812 735.4375 2324.695312 C 737.597656 2319.617188 741.164062 2313.890625 740.839844 2308.054688 C 740.410156 2301.355469 734.898438 2296.058594 728.523438 2294.980469 C 714.582031 2292.601562 709.613281 2309.675781 705.507812 2319.617188 C 697.945312 2337.554688 690.921875 2355.8125 683.03125 2373.75 C 676.007812 2389.636719 668.660156 2410.488281 655.046875 2421.945312 C 656.449219 2422.808594 657.964844 2423.671875 659.367188 2424.535156 C 668.011719 2396.984375 678.925781 2370.402344 689.40625 2343.605469 C 694.59375 2330.207031 699.78125 2316.804688 704.320312 2303.191406 C 708.640625 2290.332031 715.015625 2275.3125 715.988281 2261.699219 C 716.746094 2250.894531 699.023438 2244.734375 691.890625 2252.191406 C 688.109375 2256.1875 685.300781 2262.5625 682.601562 2267.425781 C 679.140625 2273.585938 675.902344 2279.851562 672.984375 2286.226562 C 667.6875 2297.464844 663.042969 2309.027344 658.9375 2320.804688 C 648.671875 2349.761719 640.890625 2379.695312 631.164062 2408.761719 C 632.894531 2408.976562 634.625 2409.191406 636.351562 2409.410156 C 633.109375 2375.589844 645.859375 2343.820312 655.800781 2312.160156 C 659.367188 2300.816406 675.902344 2261.375 649.644531 2262.671875 C 639.378906 2263.210938 636.027344 2274.015625 632.460938 2281.796875 C 626.195312 2295.195312 620.902344 2309.027344 616.363281 2323.183594 C 611.390625 2339.066406 607.503906 2355.273438 604.800781 2371.804688 C 603.613281 2379.261719 602.640625 2386.71875 601.882812 2394.171875 C 601.019531 2402.386719 601.019531 2412.433594 593.238281 2417.296875 C 594.535156 2417.835938 595.832031 2418.378906 597.128906 2418.808594 C 592.589844 2404.65625 593.347656 2390.824219 592.160156 2376.34375 C 591.292969 2365.429688 589.132812 2352.789062 581.460938 2344.359375 C 576.816406 2339.28125 569.574219 2335.714844 564.0625 2341.660156 C 560.066406 2345.875 560.929688 2351.382812 560.929688 2356.785156 C 561.039062 2363.808594 560.714844 2370.941406 560.390625 2377.964844 C 559.742188 2390.175781 559.09375 2402.386719 560.824219 2414.488281 C 562.660156 2427.238281 568.820312 2439.125 569.46875 2451.984375 C 570.761719 2477.808594 560.066406 2504.066406 550.125 2527.40625 C 548.828125 2530.539062 553.367188 2533.238281 554.664062 2530.105469 Z M 554.664062 2530.105469 " fill-opacity="1" fill-rule="nonzero"/><path fill="#010101" d="M 550.988281 2524.917969 C 549.585938 2533.238281 557.472656 2538.640625 563.414062 2543.179688 C 571.195312 2549.230469 579.839844 2554.09375 589.023438 2557.769531 C 592.265625 2559.066406 632.894531 2571.492188 627.382812 2557.875 C 626.84375 2556.472656 625.761719 2555.824219 624.140625 2556.039062 C 623.816406 2556.039062 623.601562 2556.148438 623.277344 2556.148438 C 619.929688 2556.6875 621.332031 2561.65625 624.683594 2561.226562 C 625.007812 2561.226562 625.222656 2561.117188 625.546875 2561.117188 C 624.464844 2560.46875 623.386719 2559.929688 622.304688 2559.28125 C 622.199219 2558.957031 606.097656 2557.550781 603.828125 2557.011719 C 597.667969 2555.5 591.617188 2553.445312 585.890625 2550.746094 C 580.8125 2548.367188 575.84375 2545.558594 571.195312 2542.425781 C 567.414062 2539.832031 555.09375 2532.050781 556.066406 2526.324219 C 556.609375 2523.082031 551.636719 2521.675781 550.988281 2524.917969 Z M 550.988281 2524.917969 " fill-opacity="1" fill-rule="nonzero"/><path fill="#010101" d="M 549.585938 2522.867188 C 541.371094 2532.375 536.726562 2543.613281 532.296875 2555.175781 C 526.570312 2569.976562 520.085938 2584.347656 514.359375 2599.152344 C 502.148438 2630.273438 490.695312 2661.714844 479.347656 2693.160156 C 468.113281 2724.496094 456.980469 2755.941406 445.421875 2787.273438 C 439.371094 2803.699219 433.75 2820.554688 426.726562 2836.65625 C 423.917969 2843.03125 420.027344 2848.867188 417.21875 2855.132812 C 414.410156 2861.183594 413.652344 2867.992188 410.734375 2873.933594 C 409.222656 2876.960938 413.761719 2879.554688 415.273438 2876.527344 C 418.300781 2870.585938 419.054688 2863.886719 421.757812 2857.726562 C 424.566406 2851.351562 428.457031 2845.515625 431.265625 2839.25 C 437.316406 2825.957031 441.855469 2811.910156 446.933594 2798.1875 C 458.601562 2766.960938 469.734375 2735.515625 480.96875 2704.074219 C 492.101562 2673.171875 503.230469 2642.265625 515.117188 2611.578125 C 520.84375 2596.667969 527 2581.972656 533.160156 2567.167969 C 538.996094 2553.121094 543.101562 2538.101562 553.257812 2526.433594 C 555.417969 2524.054688 551.746094 2520.382812 549.585938 2522.867188 Z M 549.585938 2522.867188 " fill-opacity="1" fill-rule="nonzero"/><path fill="#010101" d="M 624.25 2561.117188 C 634.300781 2568.898438 622.089844 2591.15625 619.0625 2600.339844 C 614.742188 2613.308594 610.417969 2626.273438 606.097656 2639.242188 C 597.453125 2665.390625 588.808594 2691.539062 580.273438 2717.796875 C 571.84375 2743.511719 563.523438 2769.339844 555.417969 2795.164062 C 551.3125 2808.128906 547.316406 2821.097656 542.992188 2833.953125 C 538.671875 2846.8125 535.320312 2861.832031 528.945312 2873.71875 C 527.324219 2876.636719 531.863281 2879.335938 533.484375 2876.3125 C 539.75 2864.75 542.886719 2850.917969 547.101562 2838.386719 C 551.746094 2824.445312 556.175781 2810.507812 560.605469 2796.460938 C 569.792969 2767.394531 579.191406 2738.433594 588.59375 2709.476562 C 598.101562 2680.519531 607.609375 2651.667969 617.226562 2622.816406 C 621.980469 2608.660156 626.734375 2594.507812 631.382812 2580.351562 C 633.867188 2572.570312 635.488281 2563.171875 628.140625 2557.445312 C 625.332031 2555.28125 621.65625 2558.957031 624.25 2561.117188 Z M 624.25 2561.117188 " fill-opacity="1" fill-rule="nonzero"/><path fill="#010101" d="M 604.910156 2481.15625 C 612.257812 2481.480469 619.28125 2479.753906 625.65625 2476.078125 C 628.574219 2474.457031 625.980469 2469.917969 623.0625 2471.539062 C 617.441406 2474.78125 611.390625 2476.1875 604.910156 2475.863281 C 601.558594 2475.753906 601.558594 2481.050781 604.910156 2481.15625 Z M 604.910156 2481.15625 " fill-opacity="1" fill-rule="nonzero"/><path fill="#010101" d="M 610.851562 2502.121094 C 613.335938 2500.929688 615.820312 2499.632812 618.308594 2498.445312 C 621.332031 2496.933594 618.632812 2492.394531 615.714844 2493.90625 C 613.230469 2495.097656 610.742188 2496.394531 608.257812 2497.582031 C 605.234375 2499.09375 607.824219 2503.632812 610.851562 2502.121094 Z M 610.851562 2502.121094 " fill-opacity="1" fill-rule="nonzero"/><path fill="#010101" d="M 541.265625 2607.796875 C 560.929688 2598.179688 581.460938 2590.832031 602.746094 2585.753906 C 605.988281 2584.996094 604.585938 2579.917969 601.34375 2580.675781 C 579.625 2585.863281 558.660156 2593.425781 538.5625 2603.257812 C 535.644531 2604.769531 538.238281 2609.203125 541.265625 2607.796875 Z M 541.265625 2607.796875 " fill-opacity="1" fill-rule="nonzero"/><path fill="#010101" d="M 533.808594 2637.296875 C 547.746094 2630.164062 561.6875 2623.140625 575.519531 2616.007812 C 578.542969 2614.496094 575.84375 2609.957031 572.925781 2611.472656 C 558.984375 2618.601562 545.046875 2625.625 531.214844 2632.757812 C 528.191406 2634.378906 530.890625 2638.917969 533.808594 2637.296875 Z M 533.808594 2637.296875 " fill-opacity="1" fill-rule="nonzero"/><path fill="#010101" d="M 524.730469 2660.742188 C 542.667969 2652.964844 559.957031 2643.996094 576.492188 2633.515625 C 579.300781 2631.675781 576.707031 2627.246094 573.898438 2628.976562 C 557.363281 2639.347656 540.074219 2648.425781 522.140625 2656.207031 C 519.003906 2657.609375 521.597656 2662.148438 524.730469 2660.742188 Z M 524.730469 2660.742188 " fill-opacity="1" fill-rule="nonzero"/><path fill="#010101" d="M 530.566406 2674.035156 C 540.941406 2670.035156 550.664062 2665.066406 559.957031 2658.90625 C 562.765625 2657.070312 560.175781 2652.53125 557.363281 2654.367188 C 548.503906 2660.203125 539.210938 2665.175781 529.269531 2668.957031 C 526.027344 2670.144531 527.433594 2675.222656 530.566406 2674.035156 Z M 530.566406 2674.035156 " fill-opacity="1" fill-rule="nonzero"/><path fill="#010101" d="M 522.140625 2694.132812 C 530.460938 2691.214844 538.457031 2687.542969 546.128906 2683.109375 C 549.042969 2681.382812 546.453125 2676.953125 543.535156 2678.574219 C 536.292969 2682.785156 528.730469 2686.351562 520.84375 2689.054688 C 517.601562 2690.242188 518.898438 2695.214844 522.140625 2694.132812 Z M 522.140625 2694.132812 " fill-opacity="1" fill-rule="nonzero"/><path fill="#010101" d="M 524.515625 2712.5 C 531 2708.503906 537.484375 2704.503906 544.074219 2700.507812 C 546.882812 2698.777344 544.289062 2694.242188 541.480469 2695.96875 C 534.996094 2699.96875 528.515625 2703.964844 521.921875 2707.964844 C 519.003906 2709.691406 521.707031 2714.230469 524.515625 2712.5 Z M 524.515625 2712.5 " fill-opacity="1" fill-rule="nonzero"/><path fill="#010101" d="M 511.65625 2734.976562 C 520.625 2729.140625 529.59375 2723.308594 538.5625 2717.472656 C 541.371094 2715.636719 538.78125 2711.097656 535.96875 2712.933594 C 527 2718.769531 518.03125 2724.605469 509.066406 2730.4375 C 506.253906 2732.277344 508.847656 2736.8125 511.65625 2734.976562 Z M 511.65625 2734.976562 " fill-opacity="1" fill-rule="nonzero"/><path fill="#010101" d="M 504.308594 2755.398438 C 515.980469 2749.78125 527 2743.1875 537.589844 2735.734375 C 540.292969 2733.789062 537.699219 2729.25 534.996094 2731.195312 C 524.515625 2738.757812 513.386719 2745.351562 501.71875 2750.859375 C 498.582031 2752.265625 501.285156 2756.804688 504.308594 2755.398438 Z M 504.308594 2755.398438 " fill-opacity="1" fill-rule="nonzero"/><path fill="#010101" d="M 490.371094 2783.167969 C 501.175781 2776.039062 511.875 2768.796875 522.679688 2761.667969 C 525.488281 2759.828125 522.894531 2755.292969 520.085938 2757.128906 C 509.28125 2764.257812 498.582031 2771.5 487.777344 2778.632812 C 484.96875 2780.46875 487.5625 2785.007812 490.371094 2783.167969 Z M 490.371094 2783.167969 " fill-opacity="1" fill-rule="nonzero"/><path fill="#010101" d="M 474.8125 2803.808594 C 495.125 2790.410156 515.441406 2777.011719 535.753906 2763.503906 C 538.5625 2761.667969 535.96875 2757.128906 533.160156 2758.964844 C 512.847656 2772.363281 492.53125 2785.761719 472.21875 2799.269531 C 469.300781 2801.105469 472 2805.644531 474.8125 2803.808594 Z M 474.8125 2803.808594 " fill-opacity="1" fill-rule="nonzero"/><path fill="#010101" d="M 465.519531 2818.394531 C 465.300781 2818.394531 465.085938 2818.503906 464.871094 2818.609375 C 463.898438 2818.828125 462.816406 2820.015625 462.925781 2821.097656 C 462.925781 2821.3125 463.035156 2821.636719 463.035156 2821.851562 C 463.25 2823.367188 464.113281 2824.339844 465.625 2824.445312 C 468.976562 2824.769531 471.675781 2821.746094 474.269531 2820.015625 C 480.320312 2816.019531 486.480469 2811.910156 492.53125 2807.804688 C 504.203125 2799.917969 515.765625 2791.921875 527.21875 2783.925781 C 529.917969 2781.980469 527.324219 2777.441406 524.625 2779.386719 C 514.46875 2786.519531 504.308594 2793.542969 494.046875 2800.457031 C 489.398438 2803.589844 484.753906 2806.726562 480.105469 2809.859375 C 477.1875 2811.804688 468.976562 2819.476562 465.625 2819.257812 C 466.492188 2820.125 467.355469 2820.988281 468.21875 2821.851562 C 468.21875 2821.636719 468.113281 2821.3125 468.113281 2821.097656 C 467.464844 2821.960938 466.816406 2822.824219 466.167969 2823.582031 C 466.382812 2823.582031 466.597656 2823.472656 466.816406 2823.367188 C 470.164062 2822.609375 468.761719 2817.53125 465.519531 2818.394531 Z M 465.519531 2818.394531 " fill-opacity="1" fill-rule="nonzero"/><path fill="#010101" d="M 473.296875 2826.714844 C 473.191406 2826.714844 472.972656 2826.605469 472.867188 2826.605469 C 471.460938 2826.066406 470.058594 2827.253906 469.625 2828.445312 C 469.515625 2828.660156 469.515625 2828.875 469.410156 2829.09375 C 468.976562 2830.390625 469.949219 2832.011719 471.246094 2832.332031 C 473.839844 2832.980469 475.351562 2831.578125 477.621094 2830.171875 C 482.699219 2827.148438 487.667969 2823.90625 492.640625 2820.664062 C 503.121094 2813.964844 513.386719 2806.941406 523.542969 2799.917969 C 526.246094 2797.972656 523.652344 2793.433594 520.949219 2795.378906 C 512.523438 2801.214844 503.984375 2807.050781 495.449219 2812.667969 C 491.34375 2815.371094 487.34375 2817.960938 483.132812 2820.554688 C 480.863281 2821.960938 473.40625 2827.578125 472.542969 2827.363281 C 473.191406 2828.445312 473.730469 2829.523438 474.378906 2830.605469 C 474.488281 2830.390625 474.488281 2830.171875 474.59375 2829.957031 C 473.515625 2830.605469 472.433594 2831.144531 471.355469 2831.792969 C 471.460938 2831.792969 471.675781 2831.902344 471.785156 2831.902344 C 475.136719 2832.980469 476.433594 2827.902344 473.296875 2826.714844 Z M 473.296875 2826.714844 " fill-opacity="1" fill-rule="nonzero"/><path fill="#010101" d="M 472.433594 2848.648438 C 484.753906 2839.035156 497.070312 2829.417969 509.386719 2819.691406 C 511.980469 2817.636719 508.308594 2813.964844 505.714844 2816.019531 C 493.398438 2825.632812 481.078125 2835.25 468.761719 2844.976562 C 466.058594 2847.03125 469.839844 2850.703125 472.433594 2848.648438 Z M 472.433594 2848.648438 " fill-opacity="1" fill-rule="nonzero"/><path fill="#010101" d="M 472.757812 2859.238281 C 488.859375 2847.894531 504.417969 2835.898438 519.4375 2823.367188 C 522.03125 2821.203125 518.355469 2817.53125 515.765625 2819.691406 C 501.070312 2832.011719 485.832031 2843.679688 470.164062 2854.808594 C 467.464844 2856.644531 470.058594 2861.183594 472.757812 2859.238281 Z M 472.757812 2859.238281 " fill-opacity="1" fill-rule="nonzero"/><path fill="#010101" d="M 472.648438 2871.125 C 487.5625 2859.671875 502.363281 2848.324219 517.277344 2836.871094 C 519.871094 2834.820312 517.277344 2830.28125 514.683594 2832.332031 C 499.773438 2843.789062 484.96875 2855.132812 470.058594 2866.585938 C 467.464844 2868.640625 470.058594 2873.179688 472.648438 2871.125 Z M 472.648438 2871.125 " fill-opacity="1" fill-rule="nonzero"/><path fill="#010101" d="M 1085.75 2211.5625 C 1086.398438 2220.960938 1087.15625 2230.363281 1087.804688 2239.765625 C 1088.019531 2243.113281 1093.3125 2243.113281 1092.988281 2239.765625 C 1092.34375 2230.363281 1091.585938 2220.960938 1090.9375 2211.5625 C 1090.722656 2208.210938 1085.535156 2208.210938 1085.75 2211.5625 Z M 1085.75 2211.5625 " fill-opacity="1" fill-rule="nonzero"/><path fill="#010101" d="M 1102.824219 2212.210938 C 1104.011719 2218.476562 1104.226562 2224.746094 1103.796875 2231.121094 C 1103.578125 2234.46875 1108.765625 2234.46875 1108.980469 2231.121094 C 1109.523438 2224.3125 1109.089844 2217.613281 1107.902344 2210.804688 C 1107.253906 2207.5625 1102.175781 2208.96875 1102.824219 2212.210938 Z M 1102.824219 2212.210938 " fill-opacity="1" fill-rule="nonzero"/><path fill="#010101" d="M 950.140625 2292.496094 C 956.410156 2288.820312 961.597656 2283.851562 965.484375 2277.691406 C 967.324219 2274.882812 962.785156 2272.179688 960.949219 2275.097656 C 957.488281 2280.5 952.953125 2284.824219 947.441406 2287.957031 C 944.523438 2289.683594 947.226562 2294.222656 950.140625 2292.496094 Z M 950.140625 2292.496094 " fill-opacity="1" fill-rule="nonzero"/><path fill="#010101" d="M 960.300781 2304.703125 C 965.917969 2302.976562 970.566406 2299.625 974.023438 2294.871094 C 976.074219 2292.171875 971.539062 2289.578125 969.484375 2292.277344 C 966.78125 2295.84375 963.109375 2298.4375 958.894531 2299.734375 C 955.761719 2300.597656 957.058594 2305.675781 960.300781 2304.703125 Z M 960.300781 2304.703125 " fill-opacity="1" fill-rule="nonzero"/><path fill="#010101" d="M 733.710938 2253.054688 C 738.570312 2260.511719 742.03125 2268.507812 743.976562 2277.152344 C 744.730469 2280.390625 749.808594 2279.09375 749.054688 2275.746094 C 747 2266.667969 743.328125 2258.132812 738.246094 2250.351562 C 736.410156 2247.652344 731.871094 2250.246094 733.710938 2253.054688 Z M 733.710938 2253.054688 " fill-opacity="1" fill-rule="nonzero"/><path fill="#010101" d="M 753.914062 2240.519531 C 758.128906 2247.4375 760.832031 2255 761.804688 2263.105469 C 762.234375 2266.34375 767.421875 2266.453125 766.988281 2263.105469 C 765.800781 2254.136719 762.992188 2245.707031 758.347656 2237.925781 C 756.617188 2235.007812 752.1875 2237.601562 753.914062 2240.519531 Z M 753.914062 2240.519531 " fill-opacity="1" fill-rule="nonzero"/><path fill="#010101" d="M 599.289062 2273.476562 C 605.664062 2266.992188 612.796875 2261.375 620.683594 2256.621094 C 623.601562 2254.890625 620.902344 2250.351562 618.089844 2252.082031 C 609.878906 2256.945312 602.316406 2262.886719 595.617188 2269.695312 C 593.238281 2272.179688 596.914062 2275.855469 599.289062 2273.476562 Z M 599.289062 2273.476562 " fill-opacity="1" fill-rule="nonzero"/><path fill="#010101" d="M 1209.472656 2418.59375 C 1206.015625 2410.597656 1202.664062 2402.492188 1200.503906 2394.066406 C 1199.207031 2389.3125 1198.34375 2384.449219 1198.019531 2379.476562 C 1197.804688 2375.695312 1197.371094 2356.894531 1206.230469 2366.1875 C 1209.796875 2369.96875 1211.527344 2379.046875 1213.472656 2383.800781 C 1216.605469 2391.472656 1219.523438 2399.359375 1222.871094 2406.925781 C 1224.925781 2411.460938 1228.816406 2415.785156 1234.21875 2412.542969 C 1237.78125 2410.488281 1237.890625 2406.707031 1237.675781 2402.925781 C 1237.351562 2394.066406 1235.515625 2385.3125 1233.460938 2376.777344 C 1228.707031 2357.652344 1221.46875 2339.066406 1219.738281 2319.398438 C 1219.414062 2315.1875 1219.199219 2310.972656 1219.523438 2306.757812 C 1219.738281 2302.109375 1218.332031 2299.625 1223.628906 2299.085938 C 1228.492188 2298.546875 1227.625 2299.84375 1229.246094 2304.273438 C 1232.273438 2312.484375 1234.542969 2321.019531 1236.59375 2329.558594 C 1240.699219 2347.167969 1243.617188 2365.105469 1248.804688 2382.394531 C 1250.859375 2389.203125 1253.773438 2405.734375 1264.582031 2401.519531 C 1267.929688 2400.222656 1269.117188 2397.632812 1269.765625 2394.28125 C 1271.28125 2385.746094 1269.117188 2375.589844 1267.714844 2367.050781 C 1264.363281 2346.519531 1259.933594 2326.421875 1257.664062 2305.675781 C 1256.585938 2296.058594 1255.828125 2286.441406 1255.394531 2276.71875 C 1255.289062 2274.015625 1253.449219 2265.371094 1254.855469 2263.105469 C 1256.476562 2262.457031 1257.988281 2261.699219 1259.609375 2261.050781 C 1263.066406 2257.699219 1265.335938 2258.132812 1266.632812 2262.238281 C 1268.039062 2264.832031 1268.902344 2267.75 1269.660156 2270.558594 C 1275.386719 2289.683594 1277.113281 2309.78125 1279.492188 2329.558594 C 1281.761719 2348.574219 1284.136719 2367.699219 1286.40625 2386.71875 C 1287.054688 2392.121094 1287.378906 2412.976562 1298.941406 2406.707031 C 1302.292969 2404.871094 1303.265625 2400.441406 1303.804688 2397.089844 C 1305.101562 2388.339844 1305.316406 2379.371094 1306.613281 2370.617188 C 1309.316406 2351.277344 1313.746094 2332.257812 1319.582031 2313.566406 C 1321.417969 2307.515625 1329.089844 2294.546875 1334.921875 2305.136719 C 1336.652344 2308.269531 1336.761719 2312.484375 1336.652344 2316.050781 C 1336.4375 2326.53125 1335.03125 2337.230469 1333.953125 2347.710938 C 1331.789062 2369.429688 1329.089844 2391.039062 1324.550781 2412.433594 C 1320.550781 2431.234375 1315.042969 2450.144531 1320.335938 2469.269531 C 1320.984375 2471.433594 1323.902344 2471.757812 1325.089844 2469.917969 C 1332.4375 2457.925781 1339.785156 2445.824219 1347.132812 2433.828125 C 1350.699219 2428.101562 1354.15625 2422.269531 1357.722656 2416.539062 C 1359.882812 2412.867188 1363.34375 2404.65625 1370.042969 2409.300781 C 1373.390625 2411.679688 1373.609375 2420.214844 1373.285156 2423.996094 C 1372.3125 2437.828125 1364.207031 2449.820312 1357.617188 2461.597656 C 1351.671875 2472.1875 1346.59375 2483.210938 1342.378906 2494.554688 C 1338.164062 2505.902344 1336.003906 2517.894531 1331.898438 2529.132812 C 1326.0625 2545.015625 1312.882812 2546.960938 1297.753906 2547.394531 C 1285.976562 2547.828125 1271.496094 2547.394531 1265.011719 2535.617188 C 1262.203125 2530.539062 1261.015625 2524.703125 1258.960938 2519.300781 C 1256.910156 2513.898438 1254.207031 2508.710938 1251.613281 2503.523438 C 1237.457031 2475.214844 1222.222656 2447.550781 1209.472656 2418.59375 C 1208.175781 2415.566406 1203.636719 2418.160156 1204.933594 2421.1875 C 1219.414062 2454.144531 1238.214844 2485.046875 1252.476562 2518.003906 C 1257.449219 2529.566406 1258.855469 2542.855469 1271.386719 2548.90625 C 1282.195312 2554.09375 1295.699219 2553.230469 1307.261719 2552.148438 C 1319.6875 2550.960938 1329.519531 2546.421875 1334.921875 2534.753906 C 1341.191406 2521.136719 1343.242188 2505.6875 1348.753906 2491.636719 C 1355.023438 2475.644531 1364.421875 2461.492188 1371.769531 2445.929688 C 1376.847656 2435.34375 1382.25 2418.917969 1375.121094 2407.894531 C 1372.851562 2404.4375 1369.175781 2401.953125 1364.964844 2402.277344 C 1359.128906 2402.710938 1356.535156 2407.894531 1353.726562 2412.433594 C 1342.488281 2430.695312 1331.464844 2449.066406 1320.335938 2467.328125 C 1321.957031 2467.542969 1323.46875 2467.757812 1325.089844 2467.972656 C 1319.257812 2446.796875 1327.359375 2425.078125 1331.25 2404.222656 C 1334.816406 2384.988281 1337.191406 2365.648438 1339.03125 2346.199219 C 1339.894531 2336.90625 1340.976562 2327.503906 1341.40625 2318.210938 C 1341.730469 2312.699219 1341.621094 2306.109375 1338.382812 2301.246094 C 1333.410156 2293.464844 1321.417969 2294.222656 1317.3125 2302.542969 C 1313.421875 2310.429688 1311.582031 2320.265625 1309.421875 2328.691406 C 1307.046875 2337.554688 1304.992188 2346.519531 1303.371094 2355.597656 C 1301.96875 2363.269531 1300.886719 2370.941406 1300.023438 2378.722656 C 1299.480469 2383.042969 1299.15625 2387.367188 1298.726562 2391.6875 C 1298.617188 2392.875 1298.832031 2398.820312 1297.753906 2399.253906 C 1296.023438 2398.386719 1294.296875 2397.632812 1292.675781 2396.875 C 1292.351562 2394.605469 1292.132812 2392.445312 1291.808594 2390.175781 C 1289.324219 2369.96875 1286.949219 2349.871094 1284.460938 2329.664062 C 1282.085938 2310 1280.355469 2289.902344 1274.953125 2270.773438 C 1272.683594 2262.886719 1266.632812 2246.464844 1255.179688 2252.621094 C 1249.777344 2255.539062 1249.34375 2261.160156 1249.34375 2266.5625 C 1249.34375 2277.90625 1250.425781 2289.359375 1251.503906 2300.597656 C 1253.449219 2320.589844 1257.015625 2340.363281 1260.796875 2360.136719 C 1261.878906 2365.972656 1262.960938 2371.804688 1263.609375 2377.75 C 1263.824219 2379.910156 1264.039062 2382.179688 1264.148438 2384.449219 C 1264.363281 2389.09375 1265.875 2390.714844 1260.90625 2391.796875 C 1256.261719 2392.875 1257.339844 2392.121094 1255.9375 2388.230469 C 1255.070312 2385.851562 1254.316406 2383.367188 1253.558594 2380.992188 C 1252.046875 2376.128906 1250.75 2371.050781 1249.558594 2366.078125 C 1245.128906 2347.492188 1242.210938 2328.476562 1236.484375 2310.105469 C 1234.324219 2303.191406 1230.328125 2286.011719 1219.199219 2292.386719 C 1214.660156 2294.980469 1214.550781 2300.597656 1214.226562 2305.136719 C 1213.46875 2314.863281 1214.660156 2324.695312 1216.605469 2334.3125 C 1220.386719 2353.4375 1227.734375 2371.589844 1230.976562 2390.824219 C 1230.976562 2390.933594 1234.542969 2410.382812 1228.382812 2406.707031 C 1227.839844 2406.382812 1226.976562 2403.359375 1226.761719 2402.816406 C 1224.925781 2398.28125 1223.085938 2393.847656 1221.25 2389.3125 C 1218.007812 2381.316406 1214.875 2373.210938 1211.417969 2365.324219 C 1206.554688 2354.085938 1194.992188 2355.488281 1193.046875 2367.808594 C 1190.128906 2386.175781 1197.695312 2404.761719 1204.824219 2421.1875 C 1206.339844 2424.320312 1210.878906 2421.621094 1209.472656 2418.59375 Z M 1209.472656 2418.59375 " fill-opacity="1" fill-rule="nonzero"/><path fill="#010101" d="M 1257.339844 2534.96875 C 1253.882812 2558.417969 1250.316406 2581.972656 1246.859375 2605.417969 C 1246.644531 2607.039062 1247.507812 2608.769531 1249.34375 2608.769531 C 1265.445312 2608.230469 1281.546875 2607.257812 1297.535156 2606.066406 C 1313.3125 2604.878906 1330.492188 2604.769531 1345.945312 2601.3125 C 1355.453125 2599.261719 1350.914062 2590.617188 1348.753906 2583.917969 C 1343.785156 2568.679688 1338.921875 2553.445312 1333.953125 2538.210938 C 1332.871094 2535.078125 1327.902344 2536.371094 1328.871094 2539.613281 C 1332.65625 2551.175781 1336.328125 2562.738281 1340.109375 2574.300781 C 1341.082031 2577.433594 1342.164062 2580.566406 1343.136719 2583.808594 C 1343.570312 2585.214844 1346.59375 2591.914062 1346.160156 2593.316406 C 1344.757812 2598.503906 1330.492188 2597.964844 1326.605469 2598.289062 C 1300.886719 2600.882812 1275.0625 2602.609375 1249.128906 2603.582031 C 1249.992188 2604.664062 1250.859375 2605.742188 1251.613281 2606.933594 C 1255.070312 2583.484375 1258.636719 2559.929688 1262.09375 2536.480469 C 1262.851562 2533.023438 1257.773438 2531.617188 1257.339844 2534.96875 Z M 1257.339844 2534.96875 " fill-opacity="1" fill-rule="nonzero"/><path fill="#010101" d="M 1244.484375 2605.527344 C 1254.421875 2696.078125 1270.199219 2785.871094 1286.40625 2875.554688 C 1287.054688 2878.90625 1292.027344 2877.5 1291.484375 2874.152344 C 1275.386719 2785.007812 1259.71875 2695.644531 1249.777344 2605.527344 C 1249.34375 2602.285156 1244.050781 2602.179688 1244.484375 2605.527344 Z M 1244.484375 2605.527344 " fill-opacity="1" fill-rule="nonzero"/><path fill="#010101" d="M 1345.835938 2595.910156 C 1356.101562 2616.007812 1360.964844 2638.050781 1365.070312 2660.09375 C 1369.394531 2683.109375 1373.5 2706.125 1377.171875 2729.25 C 1384.84375 2777.660156 1391.542969 2826.175781 1397.054688 2874.90625 C 1397.378906 2878.257812 1402.675781 2878.257812 1402.242188 2874.90625 C 1396.730469 2825.742188 1389.921875 2776.792969 1382.144531 2727.84375 C 1378.363281 2704.179688 1374.148438 2680.734375 1369.71875 2657.179688 C 1365.503906 2635.132812 1360.425781 2613.308594 1350.160156 2593.210938 C 1348.863281 2590.292969 1344.324219 2592.992188 1345.835938 2595.910156 Z M 1345.835938 2595.910156 " fill-opacity="1" fill-rule="nonzero"/><path fill="#010101" d="M 1247.398438 2626.597656 C 1252.15625 2624.328125 1256.691406 2621.84375 1260.90625 2618.820312 C 1265.335938 2615.683594 1269.117188 2611.363281 1274.414062 2609.957031 C 1277.65625 2609.09375 1276.25 2604.015625 1273.007812 2604.878906 C 1267.929688 2606.285156 1264.257812 2609.632812 1260.148438 2612.875 C 1255.394531 2616.550781 1250.210938 2619.574219 1244.699219 2622.167969 C 1241.671875 2623.464844 1244.375 2628.003906 1247.398438 2626.597656 Z M 1247.398438 2626.597656 " fill-opacity="1" fill-rule="nonzero"/><path fill="#010101" d="M 1252.476562 2646.265625 C 1266.851562 2632.21875 1281.871094 2619.144531 1297.859375 2607.039062 C 1300.453125 2604.988281 1297.859375 2600.449219 1295.269531 2602.503906 C 1278.953125 2614.929688 1263.5 2628.21875 1248.804688 2642.589844 C 1246.320312 2644.859375 1249.992188 2648.640625 1252.476562 2646.265625 Z M 1252.476562 2646.265625 " fill-opacity="1" fill-rule="nonzero"/><path fill="#010101" d="M 1254.855469 2673.601562 C 1278.085938 2650.695312 1301.320312 2627.894531 1324.660156 2604.988281 C 1327.035156 2602.609375 1323.363281 2598.9375 1320.984375 2601.3125 C 1297.753906 2624.222656 1274.523438 2647.019531 1251.183594 2669.929688 C 1248.804688 2672.304688 1252.476562 2675.980469 1254.855469 2673.601562 Z M 1254.855469 2673.601562 " fill-opacity="1" fill-rule="nonzero"/><path fill="#010101" d="M 1254.855469 2702.777344 C 1289.757812 2673.386719 1322.390625 2641.617188 1352.859375 2607.582031 C 1355.128906 2605.09375 1351.457031 2601.421875 1349.1875 2603.90625 C 1318.714844 2637.835938 1286.082031 2669.710938 1251.183594 2699.101562 C 1248.589844 2701.265625 1252.261719 2704.9375 1254.855469 2702.777344 Z M 1254.855469 2702.777344 " fill-opacity="1" fill-rule="nonzero"/><path fill="#010101" d="M 1262.203125 2727.519531 C 1298.183594 2697.265625 1334.492188 2666.253906 1358.910156 2625.410156 C 1360.640625 2622.492188 1356.101562 2619.898438 1354.375 2622.816406 C 1330.167969 2663.230469 1294.078125 2693.917969 1258.53125 2723.847656 C 1255.9375 2726.007812 1259.609375 2729.683594 1262.203125 2727.519531 Z M 1262.203125 2727.519531 " fill-opacity="1" fill-rule="nonzero"/><path fill="#010101" d="M 1362.261719 2635.351562 C 1344.972656 2657.070312 1327.792969 2678.679688 1310.503906 2700.398438 C 1295.59375 2719.199219 1277.980469 2737.679688 1267.390625 2759.398438 C 1265.878906 2762.421875 1270.414062 2765.015625 1271.929688 2761.992188 C 1282.734375 2739.625 1300.996094 2720.714844 1316.339844 2701.371094 C 1332.871094 2680.625 1349.402344 2659.769531 1365.933594 2639.023438 C 1368.097656 2636.429688 1364.421875 2632.757812 1362.261719 2635.351562 Z M 1362.261719 2635.351562 " fill-opacity="1" fill-rule="nonzero"/><path fill="#010101" d="M 1364.855469 2657.71875 C 1337.949219 2700.183594 1308.773438 2741.242188 1277.65625 2780.683594 C 1275.601562 2783.277344 1279.277344 2787.058594 1281.328125 2784.359375 C 1312.773438 2744.484375 1342.164062 2703.101562 1369.285156 2660.3125 C 1371.230469 2657.503906 1366.691406 2654.800781 1364.855469 2657.71875 Z M 1364.855469 2657.71875 " fill-opacity="1" fill-rule="nonzero"/><path fill="#010101" d="M 1372.742188 2690.351562 C 1356.320312 2712.5 1338.382812 2733.574219 1321.308594 2755.183594 C 1305.101562 2775.605469 1287.8125 2796.351562 1275.492188 2819.476562 C 1273.875 2822.5 1278.410156 2825.09375 1280.03125 2822.070312 C 1292.78125 2797.972656 1311.042969 2776.363281 1328.007812 2755.074219 C 1344.433594 2734.4375 1361.613281 2714.230469 1377.28125 2692.945312 C 1379.335938 2690.242188 1374.796875 2687.648438 1372.742188 2690.351562 Z M 1372.742188 2690.351562 " fill-opacity="1" fill-rule="nonzero"/><path fill="#010101" d="M 1377.390625 2723.414062 C 1354.589844 2763.613281 1318.609375 2795.054688 1295.808594 2835.25 C 1294.1875 2838.167969 1298.617188 2840.871094 1300.347656 2837.84375 C 1323.144531 2797.648438 1359.128906 2766.203125 1381.925781 2726.007812 C 1383.546875 2723.199219 1379.011719 2720.496094 1377.390625 2723.414062 Z M 1377.390625 2723.414062 " fill-opacity="1" fill-rule="nonzero"/><path fill="#010101" d="M 1253.234375 2574.40625 C 1265.769531 2581.539062 1281.976562 2581.648438 1296.023438 2580.351562 C 1311.261719 2578.945312 1325.847656 2574.730469 1339.679688 2568.140625 C 1342.703125 2566.738281 1340.109375 2562.199219 1337.085938 2563.601562 C 1324.117188 2569.761719 1310.394531 2573.761719 1296.132812 2575.054688 C 1283.058594 2576.246094 1267.714844 2576.460938 1256.042969 2569.871094 C 1252.910156 2568.25 1250.316406 2572.789062 1253.234375 2574.40625 Z M 1253.234375 2574.40625 " fill-opacity="1" fill-rule="nonzero"/><path fill="#010101" d="M 1382.898438 2752.375 C 1350.160156 2790.300781 1320.230469 2830.714844 1293.539062 2873.179688 C 1291.703125 2875.988281 1296.242188 2878.6875 1298.078125 2875.773438 C 1324.550781 2833.738281 1354.15625 2793.757812 1386.574219 2756.046875 C 1388.734375 2753.5625 1385.0625 2749.78125 1382.898438 2752.375 Z M 1382.898438 2752.375 " fill-opacity="1" fill-rule="nonzero"/><path fill="#010101" d="M 1388.625 2799.484375 C 1372.636719 2825.527344 1353.617188 2849.40625 1334.707031 2873.394531 C 1332.65625 2875.988281 1336.328125 2879.769531 1338.382812 2877.070312 C 1357.507812 2852.757812 1376.847656 2828.550781 1393.164062 2802.078125 C 1394.894531 2799.269531 1390.355469 2796.675781 1388.625 2799.484375 Z M 1388.625 2799.484375 " fill-opacity="1" fill-rule="nonzero"/><path fill="#010101" d="M 1212.175781 2260.292969 C 1218.117188 2256.402344 1223.953125 2252.621094 1229.894531 2248.730469 C 1232.703125 2246.894531 1230.109375 2242.355469 1227.300781 2244.195312 C 1221.359375 2248.085938 1215.523438 2251.867188 1209.582031 2255.757812 C 1206.769531 2257.59375 1209.363281 2262.132812 1212.175781 2260.292969 Z M 1212.175781 2260.292969 " fill-opacity="1" fill-rule="nonzero"/><path fill="#010101" d="M 1203.097656 2243.871094 C 1206.015625 2241.816406 1209.148438 2240.738281 1212.605469 2240.628906 C 1215.957031 2240.519531 1215.957031 2235.332031 1212.605469 2235.441406 C 1208.175781 2235.550781 1204.070312 2236.847656 1200.394531 2239.441406 C 1197.695312 2241.277344 1200.394531 2245.816406 1203.097656 2243.871094 Z M 1203.097656 2243.871094 " fill-opacity="1" fill-rule="nonzero"/><path fill="#010101" d="M 1380.847656 2370.402344 C 1385.601562 2374.617188 1388.734375 2380.125 1389.382812 2386.5 C 1389.707031 2389.851562 1395.003906 2389.851562 1394.570312 2386.5 C 1393.707031 2378.828125 1390.355469 2371.914062 1384.414062 2366.726562 C 1382.035156 2364.457031 1378.363281 2368.242188 1380.847656 2370.402344 Z M 1380.847656 2370.402344 " fill-opacity="1" fill-rule="nonzero"/><g clip-path="url(#e1de0880a0)"><path fill="#010101" d="M 1393.273438 2370.832031 C 1395.21875 2375.589844 1397.054688 2380.449219 1399 2385.203125 C 1400.1875 2388.339844 1405.265625 2386.933594 1404.078125 2383.800781 C 1402.132812 2379.046875 1400.296875 2374.183594 1398.351562 2369.429688 C 1397.054688 2366.402344 1391.976562 2367.699219 1393.273438 2370.832031 Z M 1393.273438 2370.832031 " fill-opacity="1" fill-rule="nonzero"/></g><path fill="#010101" d="M 354.761719 2271.964844 C 358.328125 2267.101562 361.894531 2262.238281 365.460938 2257.375 C 367.40625 2254.675781 362.867188 2252.082031 360.921875 2254.785156 C 357.355469 2259.644531 353.789062 2264.507812 350.222656 2269.371094 C 348.28125 2272.070312 352.816406 2274.664062 354.761719 2271.964844 Z M 354.761719 2271.964844 " fill-opacity="1" fill-rule="nonzero"/><path fill="#010101" d="M 348.386719 2247.652344 C 351.414062 2245.816406 354.4375 2243.976562 357.355469 2242.140625 C 360.273438 2240.414062 357.570312 2235.875 354.761719 2237.601562 C 351.738281 2239.441406 348.710938 2241.277344 345.792969 2243.113281 C 342.875 2244.949219 345.578125 2249.488281 348.386719 2247.652344 Z M 348.386719 2247.652344 " fill-opacity="1" fill-rule="nonzero"/><path fill="#010101" d="M 519.222656 2289.792969 C 525.8125 2280.714844 532.402344 2271.640625 538.996094 2262.5625 C 540.941406 2259.863281 536.402344 2257.269531 534.457031 2259.96875 C 527.867188 2269.046875 521.273438 2278.125 514.683594 2287.199219 C 512.738281 2289.902344 517.277344 2292.496094 519.222656 2289.792969 Z M 519.222656 2289.792969 " fill-opacity="1" fill-rule="nonzero"/><path fill="#010101" d="M 525.703125 2299.84375 C 532.621094 2295.304688 538.457031 2289.578125 543.101562 2282.769531 C 545.046875 2279.960938 540.507812 2277.367188 538.5625 2280.175781 C 534.457031 2286.226562 529.269531 2291.304688 523.113281 2295.304688 C 520.300781 2297.140625 522.894531 2301.679688 525.703125 2299.84375 Z M 525.703125 2299.84375 " fill-opacity="1" fill-rule="nonzero"/><path fill="#010101" d="M 413.4375 2462.789062 C 416.570312 2459.65625 419.59375 2456.628906 422.730469 2453.496094 C 425.105469 2451.117188 421.433594 2447.445312 419.054688 2449.820312 C 415.921875 2452.957031 412.894531 2455.980469 409.761719 2459.113281 C 407.386719 2461.492188 411.058594 2465.164062 413.4375 2462.789062 Z M 413.4375 2462.789062 " fill-opacity="1" fill-rule="nonzero"/><path fill="#010101" d="M 425.753906 2471.539062 C 426.1875 2470.675781 426.617188 2469.8125 427.050781 2468.839844 C 427.699219 2467.542969 427.375 2466.03125 426.078125 2465.273438 C 424.890625 2464.625 423.160156 2464.949219 422.511719 2466.246094 C 422.082031 2467.109375 421.648438 2467.976562 421.214844 2468.945312 C 420.566406 2470.242188 420.890625 2471.757812 422.1875 2472.511719 C 423.378906 2473.160156 425.105469 2472.730469 425.753906 2471.539062 Z M 425.753906 2471.539062 " fill-opacity="1" fill-rule="nonzero"/><path fill="#010101" d="M 1267.28125 2464.300781 C 1268.6875 2465.597656 1270.089844 2466.785156 1271.386719 2468.082031 C 1272.46875 2469.054688 1274.089844 2469.164062 1275.0625 2468.082031 C 1276.035156 2467.109375 1276.140625 2465.382812 1275.0625 2464.410156 C 1273.65625 2463.113281 1272.253906 2461.921875 1270.957031 2460.625 C 1269.875 2459.65625 1268.253906 2459.546875 1267.28125 2460.625 C 1266.308594 2461.597656 1266.203125 2463.328125 1267.28125 2464.300781 Z M 1267.28125 2464.300781 " fill-opacity="1" fill-rule="nonzero"/><path fill="#010101" d="M 1271.28125 2482.023438 C 1273.980469 2482.453125 1276.574219 2482.886719 1279.277344 2483.320312 C 1280.679688 2483.535156 1282.085938 2482.996094 1282.515625 2481.480469 C 1282.839844 2480.183594 1282.085938 2478.457031 1280.679688 2478.238281 C 1277.980469 2477.808594 1275.386719 2477.375 1272.683594 2476.941406 C 1271.28125 2476.726562 1269.875 2477.265625 1269.441406 2478.78125 C 1269.117188 2480.078125 1269.875 2481.804688 1271.28125 2482.023438 Z M 1271.28125 2482.023438 " fill-opacity="1" fill-rule="nonzero"/><path fill="#010101" d="M 331.316406 2670.359375 C 341.257812 2672.304688 350.980469 2674.898438 360.597656 2678.03125 C 363.839844 2679.113281 365.136719 2674.035156 362.003906 2672.953125 C 352.386719 2669.710938 342.660156 2667.226562 332.71875 2665.28125 C 329.371094 2664.632812 327.964844 2669.710938 331.316406 2670.359375 Z M 331.316406 2670.359375 " fill-opacity="1" fill-rule="nonzero"/><path fill="#010101" d="M 333.367188 2691.648438 C 341.257812 2692.1875 348.820312 2694.242188 355.953125 2697.699219 C 358.976562 2699.101562 361.570312 2694.671875 358.542969 2693.160156 C 350.546875 2689.269531 342.121094 2687 333.261719 2686.351562 C 330.019531 2686.136719 330.019531 2691.324219 333.367188 2691.648438 Z M 333.367188 2691.648438 " fill-opacity="1" fill-rule="nonzero"/><path fill="#010101" d="M 319.429688 2720.605469 C 329.261719 2722.441406 339.203125 2723.414062 349.253906 2723.414062 C 352.601562 2723.414062 352.601562 2718.230469 349.253906 2718.230469 C 339.636719 2718.230469 330.234375 2717.363281 320.832031 2715.527344 C 317.484375 2714.878906 316.078125 2719.957031 319.429688 2720.605469 Z M 319.429688 2720.605469 " fill-opacity="1" fill-rule="nonzero"/><path fill="#010101" d="M 308.082031 2765.554688 C 316.1875 2769.015625 324.507812 2771.175781 333.367188 2772.039062 C 336.71875 2772.363281 336.71875 2767.175781 333.367188 2766.851562 C 325.589844 2766.097656 317.917969 2764.152344 310.675781 2761.019531 C 307.652344 2759.828125 305.058594 2764.257812 308.082031 2765.554688 Z M 308.082031 2765.554688 " fill-opacity="1" fill-rule="nonzero"/><path fill="#010101" d="M 306.246094 2806.507812 C 315.105469 2808.347656 323.859375 2810.289062 332.71875 2812.128906 C 335.960938 2812.777344 337.367188 2807.804688 334.125 2807.050781 C 325.265625 2805.210938 316.511719 2803.265625 307.652344 2801.429688 C 304.300781 2800.675781 302.898438 2805.753906 306.246094 2806.507812 Z M 306.246094 2806.507812 " fill-opacity="1" fill-rule="nonzero"/><path fill="#010101" d="M 289.496094 2842.492188 C 295.117188 2845.949219 301.167969 2848.648438 307.433594 2850.488281 C 310.675781 2851.460938 312.082031 2846.382812 308.839844 2845.410156 C 302.898438 2843.679688 297.386719 2841.195312 292.089844 2837.953125 C 289.28125 2836.222656 286.6875 2840.652344 289.496094 2842.492188 Z M 289.496094 2842.492188 " fill-opacity="1" fill-rule="nonzero"/><path fill="#010101" d="M 291.550781 2873.285156 C 296.847656 2874.257812 302.140625 2875.125 307.433594 2876.097656 C 310.675781 2876.636719 312.1875 2871.664062 308.839844 2871.015625 C 303.546875 2870.042969 298.25 2869.179688 292.957031 2868.207031 C 289.605469 2867.667969 288.203125 2872.636719 291.550781 2873.285156 Z M 291.550781 2873.285156 " fill-opacity="1" fill-rule="nonzero"/><path fill="#010101" d="M 674.929688 2862.15625 C 694.054688 2837.628906 713.933594 2813.855469 734.683594 2790.734375 C 736.949219 2788.246094 733.277344 2784.574219 731.007812 2787.058594 C 710.261719 2810.183594 690.273438 2833.953125 671.253906 2858.484375 C 669.199219 2861.078125 672.875 2864.75 674.929688 2862.15625 Z M 674.929688 2862.15625 " fill-opacity="1" fill-rule="nonzero"/><path fill="#010101" d="M 688.757812 2863.777344 C 700.644531 2858.050781 709.398438 2845.410156 718.148438 2835.898438 C 728.738281 2824.554688 739.328125 2813.207031 749.917969 2801.863281 C 752.1875 2799.378906 748.511719 2795.703125 746.242188 2798.1875 C 736.410156 2808.777344 726.578125 2819.257812 716.746094 2829.847656 C 707.667969 2839.574219 698.269531 2853.511719 686.058594 2859.347656 C 683.03125 2860.753906 685.734375 2865.289062 688.757812 2863.777344 Z M 688.757812 2863.777344 " fill-opacity="1" fill-rule="nonzero"/><path fill="#010101" d="M 714.691406 2871.558594 C 724.847656 2863.667969 734.464844 2855.023438 743.433594 2845.839844 C 745.8125 2843.464844 742.136719 2839.679688 739.761719 2842.167969 C 730.792969 2851.351562 721.175781 2859.996094 711.019531 2867.882812 C 708.425781 2869.9375 712.097656 2873.609375 714.691406 2871.558594 Z M 714.691406 2871.558594 " fill-opacity="1" fill-rule="nonzero"/><path fill="#010101" d="M 978.777344 2408.542969 C 991.742188 2441.285156 1009.25 2473.269531 1014.109375 2508.496094 C 1017.351562 2531.835938 1023.1875 2556.6875 1051.714844 2556.253906 C 1069.109375 2556.039062 1086.9375 2551.070312 1102.824219 2544.367188 C 1107.6875 2542.316406 1113.304688 2540.695312 1114.0625 2534.859375 C 1114.710938 2530.214844 1113.84375 2526.324219 1115.679688 2521.675781 C 1117.734375 2516.816406 1120.761719 2512.601562 1122.597656 2507.738281 C 1125.515625 2500.175781 1127.242188 2491.960938 1129.945312 2484.289062 C 1133.078125 2475.214844 1136.644531 2466.246094 1139.886719 2457.167969 C 1143.128906 2447.875 1146.152344 2438.582031 1148.855469 2429.183594 C 1151.339844 2420.648438 1156.203125 2409.839844 1155.984375 2400.871094 C 1155.878906 2395.902344 1153.070312 2390.824219 1148.097656 2389.3125 C 1142.261719 2387.582031 1137.292969 2391.6875 1133.941406 2395.902344 C 1127.890625 2403.683594 1124.542969 2414.273438 1120.4375 2423.238281 C 1115.359375 2434.261719 1110.277344 2445.28125 1105.199219 2456.195312 C 1106.820312 2456.628906 1108.441406 2457.0625 1110.0625 2457.492188 C 1110.820312 2434.046875 1111.46875 2410.488281 1112.222656 2387.042969 C 1112.546875 2376.128906 1112.871094 2365.324219 1113.195312 2354.410156 C 1113.519531 2343.605469 1115.464844 2330.53125 1112.871094 2319.832031 C 1111.144531 2312.375 1101.742188 2309.242188 1097.746094 2317.128906 C 1095.800781 2321.019531 1095.800781 2327.71875 1095.152344 2332.042969 C 1094.503906 2336.6875 1093.855469 2341.335938 1093.3125 2345.980469 C 1091.910156 2357.003906 1090.828125 2368.132812 1090.074219 2379.261719 C 1089.316406 2390.390625 1088.777344 2401.519531 1088.558594 2412.652344 C 1088.453125 2417.511719 1089.855469 2424.96875 1088.453125 2429.398438 C 1087.695312 2431.777344 1085.644531 2434.585938 1082.832031 2433.828125 C 1078.511719 2432.75 1079.375 2427.453125 1079.265625 2424.429688 C 1078.078125 2400.980469 1077 2377.53125 1075.808594 2354.085938 C 1074.730469 2331.5 1073.972656 2308.917969 1072.460938 2286.335938 C 1071.8125 2276.933594 1070.40625 2263.320312 1057.222656 2265.914062 C 1043.71875 2268.613281 1047.285156 2288.496094 1047.066406 2298.113281 C 1046.636719 2321.453125 1047.066406 2344.792969 1048.472656 2368.023438 C 1049.121094 2378.828125 1049.984375 2389.636719 1050.957031 2400.332031 C 1052.039062 2412.003906 1055.0625 2425.726562 1052.144531 2437.285156 C 1050.523438 2443.988281 1044.472656 2447.984375 1040.800781 2439.988281 C 1038.964844 2435.992188 1039.503906 2429.183594 1038.964844 2424.859375 C 1037.558594 2413.082031 1036.046875 2401.304688 1034.640625 2389.417969 C 1033.234375 2378.179688 1031.941406 2366.945312 1030.535156 2355.707031 C 1029.5625 2348.140625 1029.777344 2337.445312 1026.429688 2330.421875 C 1022.648438 2322.316406 1011.085938 2320.914062 1005.683594 2328.261719 C 1000.710938 2334.960938 1004.277344 2346.519531 1005.574219 2353.867188 C 1008.167969 2368.671875 1011.300781 2383.261719 1014.21875 2397.957031 C 1015.949219 2406.492188 1017.566406 2415.136719 1018.863281 2423.78125 C 1019.621094 2428.320312 1020.808594 2433.289062 1020.808594 2437.828125 C 1020.808594 2440.097656 1021.457031 2442.148438 1019.835938 2440.421875 C 1017.242188 2437.609375 1015.949219 2431.453125 1014.433594 2427.996094 C 1011.949219 2422.265625 1009.570312 2416.648438 1007.085938 2410.921875 C 1003.953125 2403.789062 1000.929688 2391.902344 995.09375 2386.394531 C 991.3125 2382.828125 985.691406 2382.289062 981.476562 2385.527344 C 973.914062 2391.039062 976.074219 2401.195312 978.777344 2408.542969 C 979.964844 2411.679688 985.042969 2410.273438 983.855469 2407.140625 C 982.882812 2404.546875 981.695312 2401.84375 981.695312 2399.035156 C 981.695312 2392.875 989.257812 2386.285156 993.363281 2392.875 C 994.121094 2394.171875 994.769531 2395.6875 995.417969 2396.984375 C 996.605469 2399.683594 997.792969 2402.386719 998.875 2405.085938 C 1002.980469 2414.488281 1006.980469 2423.996094 1011.085938 2433.398438 C 1012.8125 2437.289062 1014.757812 2446.578125 1020.054688 2447.335938 C 1030.644531 2448.847656 1025.023438 2429.507812 1024.269531 2424.535156 C 1020.054688 2397.089844 1012.273438 2370.078125 1009.03125 2342.523438 C 1008.492188 2337.984375 1007.304688 2332.257812 1011.949219 2329.558594 C 1023.835938 2322.535156 1024.160156 2346.304688 1024.808594 2352.140625 C 1027.402344 2373.535156 1029.996094 2394.820312 1032.695312 2416.214844 C 1033.667969 2424.210938 1033.882812 2432.855469 1035.722656 2440.746094 C 1036.695312 2444.960938 1039.289062 2448.308594 1043.609375 2449.390625 C 1056.25 2452.414062 1057.871094 2437.394531 1058.089844 2428.644531 C 1058.738281 2407.894531 1054.738281 2386.824219 1053.550781 2366.078125 C 1052.363281 2345.117188 1051.820312 2324.046875 1052.144531 2302.976562 C 1052.253906 2297.898438 1052.363281 2292.710938 1052.46875 2287.632812 C 1052.578125 2283.527344 1051.496094 2276.179688 1054.523438 2272.828125 C 1057.007812 2270.128906 1061.65625 2270.128906 1064.355469 2272.503906 C 1068.136719 2275.746094 1067.273438 2286.550781 1067.488281 2291.089844 C 1068.679688 2312.050781 1069.542969 2333.015625 1070.625 2353.976562 C 1071.703125 2375.695312 1072.785156 2397.414062 1073.757812 2419.132812 C 1074.1875 2426.914062 1073.539062 2440.960938 1085.535156 2438.90625 C 1089.640625 2438.257812 1092.449219 2435.34375 1093.421875 2431.34375 C 1094.503906 2426.699219 1093.640625 2420.539062 1093.746094 2415.890625 C 1093.855469 2410.273438 1093.960938 2404.761719 1094.179688 2399.144531 C 1095.152344 2374.832031 1097.527344 2350.628906 1101.308594 2326.640625 C 1101.957031 2322.425781 1100.339844 2319.292969 1105.199219 2321.453125 C 1109.414062 2323.398438 1108.335938 2326.421875 1108.441406 2330.636719 C 1108.550781 2336.363281 1108.441406 2342.089844 1108.335938 2347.816406 C 1108.011719 2359.703125 1107.578125 2371.699219 1107.253906 2383.585938 C 1106.496094 2408.21875 1105.742188 2432.855469 1104.984375 2457.492188 C 1104.875 2459.980469 1108.765625 2461.167969 1109.847656 2458.789062 C 1116.546875 2444.3125 1123.246094 2429.832031 1129.945312 2415.351562 C 1131.566406 2411.894531 1133.078125 2408.328125 1134.808594 2404.871094 C 1135.5625 2403.464844 1136.320312 2401.953125 1137.183594 2400.546875 C 1140.101562 2396.226562 1139.453125 2396.984375 1145.398438 2398.929688 C 1152.746094 2401.304688 1151.125 2400.546875 1149.609375 2407.140625 C 1149.285156 2408.761719 1148.855469 2410.273438 1148.421875 2411.894531 C 1147.339844 2416.109375 1146.152344 2420.324219 1144.964844 2424.535156 C 1140.535156 2440.3125 1135.238281 2455.765625 1129.511719 2471 C 1124.324219 2484.9375 1121.300781 2500.175781 1114.277344 2513.25 C 1111.898438 2517.789062 1109.308594 2522.433594 1108.875 2527.621094 C 1108.550781 2531.292969 1109.414062 2534.429688 1106.171875 2537.238281 C 1102.929688 2540.15625 1096.449219 2541.453125 1092.34375 2542.855469 C 1077.972656 2547.933594 1060.140625 2553.011719 1044.796875 2550.421875 C 1020.808594 2546.421875 1021.242188 2516.921875 1018.109375 2498.230469 C 1012.921875 2466.679688 995.742188 2436.640625 984.070312 2407.140625 C 982.667969 2404.113281 977.589844 2405.410156 978.777344 2408.542969 Z M 978.777344 2408.542969 " fill-opacity="1" fill-rule="nonzero"/><path fill="#010101" d="M 1110.277344 2535.941406 C 1119.355469 2554.417969 1126.703125 2573.652344 1132.105469 2593.640625 C 1133.402344 2598.394531 1135.5625 2603.90625 1135.78125 2608.769531 C 1135.996094 2613.738281 1134.699219 2613.957031 1130.378906 2615.144531 C 1127.675781 2615.902344 1124.972656 2616.65625 1122.273438 2617.414062 C 1112.332031 2620.222656 1102.390625 2623.25 1092.34375 2625.625 C 1080.996094 2628.328125 1070.296875 2628.652344 1058.953125 2625.625 C 1054.523438 2624.4375 1050.199219 2623.03125 1045.988281 2621.410156 C 1038.53125 2618.710938 1035.722656 2615.359375 1033.777344 2607.90625 C 1028.375 2586.511719 1026.210938 2564.46875 1026.753906 2542.425781 C 1026.859375 2539.074219 1021.566406 2539.074219 1021.566406 2542.425781 C 1021.242188 2555.714844 1021.890625 2568.898438 1023.621094 2582.078125 C 1025.132812 2593.210938 1025.886719 2608.554688 1032.046875 2618.277344 C 1036.910156 2626.058594 1049.550781 2628.433594 1057.65625 2630.597656 C 1068.785156 2633.515625 1079.589844 2633.730469 1090.722656 2631.351562 C 1104.011719 2628.542969 1117.085938 2624.328125 1130.160156 2620.65625 C 1139.128906 2618.171875 1142.910156 2617.199219 1140.859375 2607.363281 C 1135.457031 2581.648438 1126.378906 2556.796875 1114.925781 2533.347656 C 1113.304688 2530.320312 1108.765625 2532.914062 1110.277344 2535.941406 Z M 1110.277344 2535.941406 " fill-opacity="1" fill-rule="nonzero"/><path fill="#010101" d="M 1059.386719 2600.988281 C 1059.492188 2602.933594 1054.308594 2603.90625 1052.902344 2604.125 C 1049.121094 2604.664062 1046.960938 2603.152344 1045.988281 2599.367188 C 1045.339844 2596.992188 1045.230469 2593.859375 1047.714844 2592.5625 C 1053.226562 2589.644531 1058.953125 2596.019531 1059.386719 2600.988281 C 1059.710938 2604.339844 1064.894531 2604.339844 1064.570312 2600.988281 C 1064.03125 2595.15625 1060.898438 2590.074219 1055.277344 2587.914062 C 1050.847656 2586.078125 1045.121094 2586.511719 1042.203125 2590.617188 C 1038.640625 2595.585938 1040.476562 2604.878906 1045.664062 2608.121094 C 1050.847656 2611.363281 1065.113281 2608.984375 1064.570312 2601.097656 C 1064.355469 2597.640625 1059.167969 2597.53125 1059.386719 2600.988281 Z M 1059.386719 2600.988281 " fill-opacity="1" fill-rule="nonzero"/><path fill="#010101" d="M 1136.96875 2613.632812 C 1155.769531 2617.414062 1163.007812 2640.863281 1169.707031 2656.3125 C 1179.972656 2680.300781 1188.941406 2704.9375 1198.019531 2729.359375 C 1215.957031 2777.984375 1232.921875 2826.929688 1250.316406 2875.664062 C 1251.398438 2878.796875 1256.476562 2877.5 1255.394531 2874.257812 C 1236.59375 2821.203125 1218.117188 2768.042969 1198.453125 2715.3125 C 1189.484375 2691.324219 1180.40625 2667.441406 1170.140625 2644.101562 C 1163.765625 2629.625 1155.769531 2612.011719 1138.480469 2608.554688 C 1135.023438 2608.011719 1133.617188 2612.984375 1136.96875 2613.632812 Z M 1136.96875 2613.632812 " fill-opacity="1" fill-rule="nonzero"/><path fill="#010101" d="M 1027.402344 2613.957031 C 1022.863281 2633.730469 1023.945312 2653.828125 1026.105469 2673.816406 C 1028.375 2695.320312 1030.859375 2716.714844 1033.992188 2738.109375 C 1040.691406 2784.140625 1049.335938 2829.957031 1058.519531 2875.664062 C 1059.167969 2878.90625 1064.246094 2877.609375 1063.597656 2874.257812 C 1054.847656 2830.820312 1046.636719 2787.273438 1040.152344 2743.511719 C 1036.910156 2721.902344 1034.316406 2700.074219 1031.941406 2678.355469 C 1029.671875 2657.394531 1027.832031 2636 1032.585938 2615.253906 C 1033.234375 2612.121094 1028.15625 2610.714844 1027.402344 2613.957031 Z M 1027.402344 2613.957031 " fill-opacity="1" fill-rule="nonzero"/><path fill="#010101" d="M 1050.199219 2489.910156 C 1058.414062 2484.183594 1066.410156 2478.023438 1073.972656 2471.433594 C 1076.566406 2469.269531 1072.785156 2465.488281 1070.296875 2467.757812 C 1063.058594 2474.027344 1055.496094 2479.96875 1047.605469 2485.480469 C 1044.796875 2487.316406 1047.390625 2491.855469 1050.199219 2489.910156 Z M 1050.199219 2489.910156 " fill-opacity="1" fill-rule="nonzero"/><path fill="#010101" d="M 1065.867188 2496.933594 C 1070.191406 2493.582031 1074.40625 2490.34375 1078.726562 2486.992188 C 1081.429688 2484.9375 1077.648438 2481.265625 1075.054688 2483.320312 C 1070.730469 2486.667969 1066.515625 2489.910156 1062.195312 2493.257812 C 1059.492188 2495.3125 1063.167969 2498.984375 1065.867188 2496.933594 Z M 1065.867188 2496.933594 " fill-opacity="1" fill-rule="nonzero"/><path fill="#010101" d="M 1084.128906 2656.421875 C 1103.039062 2728.0625 1117.625 2800.675781 1127.890625 2874.042969 C 1128.324219 2877.394531 1133.402344 2875.988281 1132.96875 2872.636719 C 1122.707031 2799.269531 1108.117188 2726.65625 1089.207031 2655.015625 C 1088.34375 2651.773438 1083.265625 2653.179688 1084.128906 2656.421875 Z M 1084.128906 2656.421875 " fill-opacity="1" fill-rule="nonzero"/><path fill="#010101" d="M 1112.441406 2661.285156 C 1130.917969 2732.816406 1146.585938 2805.210938 1170.679688 2875.125 C 1171.761719 2878.257812 1176.839844 2876.960938 1175.761719 2873.71875 C 1151.664062 2803.808594 1135.996094 2731.410156 1117.519531 2659.878906 C 1116.652344 2656.636719 1111.574219 2658.042969 1112.441406 2661.285156 Z M 1112.441406 2661.285156 " fill-opacity="1" fill-rule="nonzero"/><path fill="#010101" d="M 1126.054688 2630.164062 C 1160.957031 2703.855469 1190.5625 2779.925781 1214.660156 2857.726562 C 1215.632812 2860.96875 1220.710938 2859.5625 1219.738281 2856.320312 C 1195.535156 2777.984375 1165.710938 2701.589844 1130.59375 2627.464844 C 1129.082031 2624.4375 1124.648438 2627.140625 1126.054688 2630.164062 Z M 1126.054688 2630.164062 " fill-opacity="1" fill-rule="nonzero"/><path fill="#010101" d="M 1060.140625 2640.863281 C 1074.945312 2719.417969 1092.558594 2797.433594 1108.765625 2875.664062 C 1109.414062 2878.90625 1114.492188 2877.609375 1113.84375 2874.257812 C 1097.636719 2796.027344 1080.023438 2718.011719 1065.21875 2639.457031 C 1064.570312 2636.105469 1059.601562 2637.511719 1060.140625 2640.863281 Z M 1060.140625 2640.863281 " fill-opacity="1" fill-rule="nonzero"/><path fill="#010101" d="M 1042.636719 2671.117188 C 1057.546875 2738.976562 1069.976562 2807.375 1083.15625 2875.554688 C 1083.804688 2878.90625 1088.882812 2877.5 1088.234375 2874.152344 C 1074.945312 2805.96875 1062.628906 2737.570312 1047.714844 2669.710938 C 1046.851562 2666.46875 1041.878906 2667.875 1042.636719 2671.117188 Z M 1042.636719 2671.117188 " fill-opacity="1" fill-rule="nonzero"/><path fill="#010101" d="M 1139.5625 2697.589844 C 1142.046875 2706.449219 1144.53125 2715.3125 1147.015625 2724.28125 C 1147.882812 2727.519531 1152.960938 2726.117188 1152.097656 2722.875 C 1149.609375 2714.015625 1147.125 2705.152344 1144.640625 2696.183594 C 1143.777344 2692.945312 1138.695312 2694.347656 1139.5625 2697.589844 Z M 1139.5625 2697.589844 " fill-opacity="1" fill-rule="nonzero"/><path fill="#010101" d="M 1153.175781 2752.589844 C 1159.445312 2764.800781 1164.738281 2777.335938 1168.84375 2790.410156 C 1169.816406 2793.652344 1174.894531 2792.246094 1173.921875 2789.003906 C 1169.601562 2775.496094 1164.199219 2762.53125 1157.714844 2749.886719 C 1156.09375 2746.972656 1151.554688 2749.5625 1153.175781 2752.589844 Z M 1153.175781 2752.589844 " fill-opacity="1" fill-rule="nonzero"/><path fill="#010101" d="M 1091.910156 2638.59375 C 1092.773438 2640.320312 1093.746094 2642.160156 1094.609375 2643.886719 C 1095.257812 2645.183594 1096.988281 2645.507812 1098.175781 2644.859375 C 1099.472656 2644.101562 1099.796875 2642.589844 1099.148438 2641.292969 C 1098.285156 2639.566406 1097.3125 2637.726562 1096.449219 2636 C 1095.800781 2634.703125 1094.070312 2634.378906 1092.882812 2635.027344 C 1091.585938 2635.78125 1091.261719 2637.402344 1091.910156 2638.59375 Z M 1091.910156 2638.59375 " fill-opacity="1" fill-rule="nonzero"/><path fill="#010101" d="M 1104.984375 2632.648438 C 1105.632812 2636.539062 1107.363281 2639.996094 1109.847656 2643.023438 C 1110.710938 2644.101562 1112.65625 2643.886719 1113.519531 2643.023438 C 1114.601562 2641.941406 1114.386719 2640.429688 1113.519531 2639.347656 C 1111.683594 2636.972656 1110.601562 2634.269531 1110.0625 2631.246094 C 1109.414062 2628.003906 1104.445312 2629.40625 1104.984375 2632.648438 Z M 1104.984375 2632.648438 " fill-opacity="1" fill-rule="nonzero"/><path fill="#010101" d="M 1117.410156 2643.128906 C 1120.113281 2650.695312 1122.707031 2658.148438 1125.40625 2665.714844 C 1126.488281 2668.847656 1131.566406 2667.550781 1130.484375 2664.308594 C 1127.785156 2656.746094 1125.191406 2649.289062 1122.488281 2641.726562 C 1121.410156 2638.59375 1116.328125 2639.890625 1117.410156 2643.128906 Z M 1117.410156 2643.128906 " fill-opacity="1" fill-rule="nonzero"/><path fill="#010101" d="M 1140.535156 2628.757812 C 1142.910156 2637.296875 1146.261719 2645.398438 1150.476562 2653.070312 C 1152.097656 2655.988281 1156.632812 2653.394531 1155.011719 2650.476562 C 1150.90625 2643.128906 1147.773438 2635.457031 1145.613281 2627.355469 C 1144.75 2624.113281 1139.667969 2625.519531 1140.535156 2628.757812 Z M 1140.535156 2628.757812 " fill-opacity="1" fill-rule="nonzero"/><path fill="#010101" d="M 1040.042969 2641.1875 C 1040.042969 2647.34375 1040.042969 2653.613281 1040.042969 2659.769531 C 1040.042969 2663.121094 1045.230469 2663.121094 1045.230469 2659.769531 C 1045.230469 2653.613281 1045.230469 2647.34375 1045.230469 2641.1875 C 1045.230469 2637.835938 1040.042969 2637.835938 1040.042969 2641.1875 Z M 1040.042969 2641.1875 " fill-opacity="1" fill-rule="nonzero"/></svg>